<svg xmlns="http://www.w3.org/2000/svg" viewBox="0 0 2567.09 679.26"><defs><style>.cls-1{fill:#355c86;}.cls-2{fill:#a9a9ac;}</style></defs><title>Ativo 1</title><g id="Camada_2" data-name="Camada 2"><g id="Camada_1-2" data-name="Camada 1"><path class="cls-1" d="M1686,282c10.52,2.56,20.37,4.88,29.54,9.34,27.58,13.41,41,35.88,42.47,66,1.45,30.51-7.15,56.93-32,76.42-14.75,11.57-31.88,16.93-50.34,18.57-17.85,1.59-35.64-.11-53.4-1.39-19-1.38-37.91-2.31-56.91-1-4.15.28-8.32.68-12.46-.08-2.7-.49-5.42-1.31-5.88-4.51-.48-3.39,1.34-5.86,4.31-7.16a43.93,43.93,0,0,1,8-2.5c11.32-2.56,14.75-6.49,15.41-18.1.15-2.66.1-5.33.1-8q0-113.25,0-226.5c0-13-2.26-15.52-15.24-17.23-3.63-.47-7.31-.71-10.78-2-1.68-.63-3.76-1-4.08-3.2-.36-2.43,1.12-4.16,3-5.37a35.76,35.76,0,0,1,13.43-5.15c42.16-7.39,84.37-9.6,126.45.11,16.53,3.82,31.39,11.24,42.19,24.94,21.47,27.26,16,68-11.89,90.21C1708.64,272.92,1698,277.93,1686,282Zm-65.44,69.58h.05c0,14.49,0,29,0,43.47,0,9.34.58,18.63,3.23,27.65,3.21,10.92,9.81,16.47,20.94,17.74,23.55,2.68,43.08-7.68,54.09-29.34,12.86-25.31,14.61-52.13,7.58-79.15-5.65-21.7-19.71-36.26-42.36-41.16-13.35-2.89-26.46-.53-39.58,1.94-3.43.65-4,2.25-4,5.38C1620.66,316,1620.59,333.79,1620.59,351.61Zm.08-127.73h-.08c0,14.32.07,28.63,0,42.94,0,3.08.85,4.21,4.06,4.76a85.73,85.73,0,0,0,26.79.76c15.78-2.23,28.6-9.3,37.33-23,8-12.61,9.8-26.62,9.27-41.16-1.38-37.88-28.8-55.07-61.88-49.66-8.53,1.39-12.6,5.84-14.18,14.53a76,76,0,0,0-1.27,13.89C1620.69,199.25,1620.67,211.57,1620.67,223.88Z"/><path class="cls-1" d="M1248.62,450.31q-41.25,0-82.5,0c-2.65,0-5.3-.38-7.95-.6s-3.82-1.88-4.15-4.23,1.26-3.71,3.2-4.51a100.65,100.65,0,0,1,11.62-4.5c8.11-2.27,11.61-7.77,12-15.76q.23-5.24.22-10.49,0-111.75,0-223.5c0-3.82.12-7.64-.76-11.43-1.7-7.31-4.85-10.24-12.25-10.83-3.49-.28-7-.58-10.21-2.06-2.49-1.15-4-3.07-3.79-5.86.28-3.09,2.93-3.24,5.24-3.5a58.56,58.56,0,0,1,6.48-.41c54.83-.21,109.66.52,164.48-.85,2.79-.07,3.43.87,3.42,3.39,0,20.49.1,41-.11,61.49,0,3,1.12,7.39-3.24,8.56-4.67,1.24-7-2.43-8.63-5.94-2.82-6-5.19-12.25-7.9-18.32-6.86-15.44-16.3-28.4-33.72-32.93a96,96,0,0,0-40.13-1.54c-7,1.15-10,4.47-11.24,11.48a39,39,0,0,0-.68,6.45q-.08,43.25,0,86.5c0,6,1.61,8.44,7.13,8.89,12.63,1,25.29,1.24,37.71-2.08,9.59-2.57,15.64-8.91,19.39-17.91,2.17-5.23,2.88-11,5.76-15.94,1.52-2.62,3.54-4,6.54-3.42,3.32.62,3.36,3.33,3.36,5.85q0,42,0,84a13.36,13.36,0,0,1-.14,2c-.46,3-1.1,6.18-4.67,6.9s-5.43-2.13-6.66-4.85c-1.43-3.16-2.32-6.57-3.46-9.87-1.3-3.77-2.52-7.57-4-11.29-4.78-12.46-14-18.56-27.24-18.73q-12.75-.15-25.5-.17c-4.23,0-7,2-7.61,6.32a49.16,49.16,0,0,0-.62,6.94c0,26.83-.14,53.67.07,80.5a103.18,103.18,0,0,0,3.54,27.14c3.49,12.51,11.77,19.48,24.41,21a79.33,79.33,0,0,0,27.79-1.47c22.17-5.18,32.73-21.23,39-41.37,2.24-7.14,2.91-14.7,5.79-21.66a17.1,17.1,0,0,1,3.2-5.59c2.08-2.17,4.65-2.47,7.39-1.76s2.84,3,3,5.18c.2,2.65.39,5.31.39,8q.06,30.24,0,60.49c0,12.9-.68,13.56-13.51,13.59-26.82.07-53.65,0-80.47,0Z"/><path class="cls-1" d="M1874.25,450.29h-82c-2,0-4,0-6-.19-2.81-.21-5.46-1-6-4.23s2-4.61,4.6-5.6c3.73-1.43,7.42-3,11.23-4.15,7-2.11,10.21-7,10.7-14,.26-3.82.4-7.66.4-11.49q0-111.74,0-223.48v-3c.07-14.37-3.62-20.38-17.5-20.3a10.56,10.56,0,0,1-7.78-2.94,5.13,5.13,0,0,1-1.63-5c.45-1.83,2-2.58,3.77-2.71,2.49-.19,5-.5,7.47-.51,53-.18,106,.25,159-.69,9.26-.17,9.25-.14,9.25,9.39q0,26.76,0,53.5a25,25,0,0,1-.06,3c-.35,2.81.58,6.43-3.37,7.37s-6.12-1.85-7.91-4.78c-3.33-5.43-4.93-11.63-7.56-17.36-1.12-2.42-2.22-4.84-3.35-7.25-9.17-19.57-24.85-29.35-46.15-30.39-8.31-.4-16.65-.75-24.91.83-7.37,1.41-10.74,4.77-11.69,12.18a70.61,70.61,0,0,0-.62,9q-.06,41.24,0,82.49c0,7.46,1.81,9.81,9.18,10.13,11,.48,22,.69,32.85-1.63,11-2.35,18.4-8.85,22.45-19.21,1.27-3.24,2.1-6.65,3.18-10a18.42,18.42,0,0,1,3.92-7.44,5.19,5.19,0,0,1,5.54-1.25c2.12.62,2.62,2.34,2.62,4.32,0,.83.11,1.67.11,2.5q0,40.48-.07,81c0,2.31.1,4.64-.76,6.91-.77,2-2,3.48-4.16,3.87s-3.79-.79-5.07-2.46c-2.06-2.72-3-5.92-4-9.11a146.59,146.59,0,0,0-4.91-14.66c-4.9-11.88-13.51-18.24-26.44-18.44-8.83-.15-17.66-.18-26.49-.23-4.35,0-6.82,2.19-7.4,6.48a44.11,44.11,0,0,0-.6,5.94c0,26.33-.13,52.66,0,79a126.46,126.46,0,0,0,2.61,25.77c3.43,16,12.6,24.19,29,25.05,16.89.88,33-1.17,46.16-13.27,8.6-7.92,13.33-18.18,16.71-29.1,1.62-5.24,2.68-10.65,4.1-15.95a58.42,58.42,0,0,1,2.42-7.6c1.71-4.07,4.18-7.45,9.35-6.42s4.09,5.6,4.11,8.92c.18,22.49.16,45,.06,67.49,0,9.69-1.19,10.87-11,10.92-27.82.11-55.64,0-83.47,0Z"/><path class="cls-1" d="M1370.92,399.64c1-12,.74-24.15,2-36.27.33-3.14,1.73-4.89,4.24-5.89a6,6,0,0,1,7.19,2c3.44,4,5.05,9,6.48,13.91,4.58,15.86,9.67,31.5,18.18,45.79,5.27,8.85,11.46,16.81,21,21.38,21,10,45.53,2.36,58.38-18,12.49-19.82,11.23-44.93-2.54-64.9-12.34-17.91-29-31-46.24-43.63-17.07-12.5-34-25.16-48.07-41.22-22.47-25.7-25.06-66.84-5.47-94.7,12.22-17.39,29.85-26.67,50.38-30.54a127.81,127.81,0,0,1,62.18,3.77c1,.3,1.9.63,2.83,1,11.19,4.22,13.24,7.19,13.38,19.19q.28,23.23.56,46.48c0,2-.26,4-.39,6-.19,2.91-.49,5.74-4.07,6.58-3.42.8-5.73-.73-7.62-3.41-3.6-5.12-5.42-11-7.41-16.84a234.92,234.92,0,0,0-13.61-32.68c-6.91-13.31-17.07-20.75-32.58-20.47s-27.16,7.18-35,20.31c-10.8,18.22-7.9,44.81,6.47,61.17,10.84,12.35,24,22.1,37.14,31.74,18.44,13.48,36.81,27.08,52,44.3,16.31,18.45,21.39,40,19.77,64.56-2.6,39.59-40.52,77.59-90.58,78.16-14.34.16-28.63-.12-42.76-3-17.38-3.54-24.88-12-26.22-29.6C1370,416.43,1371.16,408.13,1370.92,399.64Z"/><path class="cls-2" d="M2193.93,198.28c0,8.16.1,16.33,0,24.49-.05,2.91.06,6.38-3.55,7.49-3.9,1.19-6.56-.77-8.72-4.06-4.64-7.09-6.39-15.3-9.32-23-4.35-11.53-8.85-22.94-16-33.13-5.8-8.29-13.82-11.86-23.66-12.77-30.46-2.82-48.5,24.89-45.3,51.67,2.26,19,12.7,32.18,26.66,43.37,17.39,13.93,35.22,27.3,52.78,41,10.07,7.89,19.87,16.44,27.19,26.77,8.47,12,14.43,25.36,15.17,40.75a129.1,129.1,0,0,1-1,23.7,74.7,74.7,0,0,1-16.7,37.75c-19.11,23.45-44.22,34.35-74.09,35-15.5.36-30.9-.41-46.08-4A28.56,28.56,0,0,1,2049,423.91c.64-19.29,2.1-38.55,2.09-57.87,0-2.9-.45-7.11,3.4-8.5,4.57-1.65,7.94.21,10.85,5.51,4.37,7.95,5.89,16.91,8.8,25.37,4.83,14.05,10.8,27.49,19.56,39.67,16.16,22.47,51.75,21.7,69.15.51,18.65-22.72,17.09-52.59-2.61-77.38-13.76-17.32-31.69-29.77-49.18-42.78A399.82,399.82,0,0,1,2075.87,279c-17-15.95-23.88-35.78-23.92-58.44,0-25.15,10-45,30.89-59.58,12.94-9,27.27-12.86,42.63-14.73,16.6-2,32.66.21,48.65,4.17.49.12,1,.2,1.45.36,18.89,6.62,17,8.37,18.18,24.56.53,7.63.09,15.32.09,23Z"/><path class="cls-1" d="M1135.81,394.28c0,10.5-.17,21,.06,31.5.15,7.17-2.7,12.46-8.52,16.44-11.09,7.6-23.67,11.34-36.67,13.65-19.11,3.41-38.08,3.12-56.65-3.4-21.57-7.57-37.67-22.14-51.19-40-21.51-28.36-31.62-60.79-34.06-95.95-2-28.89.43-57.29,10.14-84.68,11.27-31.77,29.72-58.25,60.29-74.11,30.8-16,63-15.7,95.49-5.17,9.9,3.21,15,9.59,15,20.24.11,17.32.7,34.65,1,52,0,3.34-.3,6.83-4.4,8.05s-6.77-.83-9-3.76c-4.23-5.51-6.36-12-8.54-18.49-3.25-9.63-6.75-19.15-11.54-28.13-13.87-26-42.38-31.38-65-12.18-11.52,9.8-18.37,22.69-23.38,36.63-7.55,21-10.34,42.92-11.17,65.15-1,26.7,0,53.31,4.24,79.68,3.7,23.1,9.87,45.52,22.43,65.65,6,9.61,13.39,17.91,24,22.66,20,9,40.66,1.75,53.62-18.65,8.23-13,11.27-27.61,13.9-42.4a110.34,110.34,0,0,1,4.66-18.86c1-2.83,2.2-5.59,4.38-7.75,3.65-3.59,8.57-2.41,10.16,2.48,1.31,4,1,8.26,1.09,12.4.13,9,0,18,0,27Z"/><path class="cls-2" d="M2390.48,342.38c-8.17,0-16.33-.12-24.49,0-6.76.12-10.38,2.71-12,9-4.78,19-10.38,37.75-13.66,57.06-.92,5.45-.69,11.19-.34,16.75a10.28,10.28,0,0,0,6.12,9.13c5.57,2.26,11.15,5,17.35,4.95a9.84,9.84,0,0,1,6.37,2.1c1.64,1.23,3.36,2.31,2.44,4.8s-2.24,4.18-5,4.06c-3.48-.14-6.95-.54-10.44-.69-19-.84-37.95.44-56.92.66-2.84,0-6.46.49-7.07-3.13-.72-4.25.67-7.39,6-8.26,13.93-2.25,20.07-12.42,24-24.72,4.15-12.84,7.3-26,11.3-38.84s7.74-25.79,10.8-38.93c1.85-8,4.65-15.74,7.12-23.57,4.2-13.37,9-26.59,11.72-40.36,1.79-9.13,6.14-17.35,8.15-26.39,3.59-16.13,9.37-31.66,13.25-47.75,1.87-7.78,5.34-15.19,7.4-23s4-15.58,7-23.06c1.41-3.47,2.19-7.62,7-7.79,5.19-.2,6.55,4,7.7,7.79q9.28,30.72,18.33,61.51,12.43,42.06,24.79,84.14c5.54,18.91,10.66,37.94,16.61,56.72,6.69,21.15,11.84,42.77,19.65,63.57,1.4,3.73,3,7.37,4.73,11,3,6.35,8.48,9.26,15,10.08,2.36.29,4,1.45,5.76,2.53s1.68,3.05,1.54,4.91c-.15,2.07-1.62,3-3.27,3.25a24,24,0,0,1-6.44.36c-14.46-1.44-29-1.2-43.43-.75-13,.41-26.11-1.12-39.14.73-3,.43-7,.54-7.49-3.74s2.84-5.57,6.38-6.22c2-.37,3.91-.72,5.85-1.12,13.6-2.78,13.42-7.92,12.34-18.64a107.54,107.54,0,0,0-4.95-22.83c-4.89-14.79-7.62-30.15-12.65-44.88-2.72-8-5.21-10.15-13.61-10.36C2406.47,342.23,2398.47,342.38,2390.48,342.38Zm.84-13.23c5.33,0,10.66,0,16,0,12.72-.08,14.49-2.31,11.05-14.6q-10.5-37.41-21.22-74.75c-.92-3.25-1.08-8.08-5.09-8.18s-4.41,4.77-5.33,8q-7.06,24.39-13.84,48.88c-2.63,9.44-5.28,18.87-7.62,28.38-2.13,8.69.75,12.22,9.57,12.31C2380.33,329.19,2385.82,329.15,2391.32,329.15Z"/><path class="cls-2" d="M2214.78,519.64c.53,3.58.95,6.48,1.4,9.49,2.39-.43,3.7-2.06,5.14-3.31A22.52,22.52,0,0,1,2248,523.5a2.93,2.93,0,0,1,1.33,1.37c1.79,6.08,4.9,4.43,8.33,1.54,5.26-4.45,11.06-6.82,18.24-6.2,6.63.57,13,6,13.94,12.73,2,13.93.58,27.92,1,41.88.14,4.84-.63,10.07,6.37,10.89.4,0,1.12,1.18,1,1.35-.54.8-1.43,2.13-2,2-7.51-1.3-15,.78-22.52-.37-.71-.11-1.83-.64-1.91-1.11a2,2,0,0,1,1.57-2.19c4.66-1.48,5.43-5,5.36-9.42-.16-11.17,0-22.33-.07-33.5a20.43,20.43,0,0,0-2.8-10.88c-2.64-4.42-6.19-5.77-10.86-5.16a11.49,11.49,0,0,0-9.71,7.59,16.82,16.82,0,0,0-1.28,5.82c-.13,13.49,0,27-.18,40.49-.06,5.15,4.42,4.55,7.17,6.17-2,2.87-2.23,3.11-4.32,2.65a40.91,40.91,0,0,0-17.69,0c-1.59.34-3.06.18-3.78-1.53-.83-2,.8-1.95,2-2.54a7.69,7.69,0,0,0,4.52-7.21c0-13,.17-26-.09-39-.12-6.13-4.86-11.64-8.58-12.41-5.45-1.12-11.41,1.22-13.89,5.67a20,20,0,0,0-2.16,9.64c-.15,12.5-.1,25-.05,37.49,0,3.17.53,6.14,4.81,6,1.05,0,2,.24,1.92,1.66a2.1,2.1,0,0,1-2,1.86c-7.87-1.84-16,1.19-23.78-1.32-.12,0-.18-.28-.57-1,8.73-1.74,7.49-8.52,7.48-14.75q0-16.75,0-33.5c0-3.34.06-6.38-4.22-7.88-3.27-1.14-.5-3.29.7-3.67C2206.1,525.29,2210.06,522.21,2214.78,519.64Z"/><path class="cls-2" d="M1804.33,588.41c-7.9,0-15.8,0-23.7,0-.68,0-1.38-.22-1.49-1-.14-1,.58-1.54,1.37-1.81,3.39-1.17,4.31-3.76,4.31-7,0-12.82.14-25.65-.07-38.48-.18-10.78-6.4-16-15.45-13.2-6.73,2-9,7.7-9.14,13.77-.41,13.32-.16,26.65-.14,40,0,2.61,1,4.49,4,4.75,1.25.1,3,0,2.65,2-.34,1.85-2,2.11-3.54,1.91-6.11-.79-12.19-1.22-18.33,0a3.59,3.59,0,0,1-4-2.32c-.36-1.35,1.36-3.16,2.55-3.22,4.89-.26,4.37-4.28,4.38-6.85,0-14.11.93-28.24-.77-42.32-.53-4.44-3.9-7.59-8.73-8.17-5.87-.72-11.42,2.27-13.35,7.35a27.43,27.43,0,0,0-1.8,9.74c0,11.49,0,23,0,34.48,0,3.56.37,6.73,4.77,7.49.93.17,2,.77,1.72,2-.24,1-1.32.86-2.08.86-7.39,0-14.78.08-22.16-.22-1.73-.08-1.87-2.08-.17-2.6,6.3-1.94,5.92-6.79,5.86-11.87-.15-12.32-.07-24.65,0-37,0-2.94.21-5.54-4.06-5.8-2.41-.15-2.46-2.19-.39-3.3a123.51,123.51,0,0,0,12.09-6.87c2-1.33,3.15,0,3.41,2.49.4,3.89,1.46,5.18,5.54,2.21,6.33-4.59,13.54-6.53,21.67-4.36a10,10,0,0,1,6.37,4.95c2.16,3.6,4.38,3.94,7.53,1.21,4.18-3.62,8.66-6.37,14.49-7.12,8.49-1.08,16.29,3.58,18.21,12A42.32,42.32,0,0,1,1797,542c-.11,11.33,0,22.66,0,34C1797,582,1796.94,582,1804.33,588.41Z"/><path class="cls-2" d="M2152.91,533.19q0,21.22,0,42.46a18,18,0,0,0,.28,4c.25,1.08.61,2.38,2,2.6s2.06-.82,2.64-1.87a3.31,3.31,0,0,1,.48-.87c1.31-1.24,1.21-5,3.63-3.66,2.24,1.28,1.46,4.73.09,6.71-3.85,5.59-10.06,7.3-16.21,8.73-2.38.55-2.68-1.79-3.28-3.55-1-3-2.52-4.64-5.76-1.94-10.91,9.08-25.61,5.78-31.56-9.87-4.59-12.07-4.37-24.35-.12-36.43a30.87,30.87,0,0,1,10.51-14.9c6.36-4.72,13.42-5.83,20.66-2.37,4.07,1.94,4.8.67,4.65-3.21-.21-5.49-.09-11,0-16.48,0-2.84-.15-5.43-3.7-6-.77-.14-1.81,0-2-1.07-.22-1.3.92-1.72,1.79-2,4.32-1.46,8-3.95,11.76-6.47,3-2,4.3-1.7,4.19,2.32-.2,7.32-.06,14.65-.06,22v22Zm-12,22.26c-.13-7.78.45-15-1.11-22-.89-4-2.38-7.81-6.92-8.89-5-1.18-8.79.94-11.52,5a20.82,20.82,0,0,0-2.54,5.37,62.86,62.86,0,0,0-.44,36.25,16.83,16.83,0,0,0,6.29,9.33c6.24,4.52,13.56,1.58,15.28-5.87C2141.5,568.06,2140.55,561.41,2140.93,555.45Z"/><path class="cls-2" d="M1280.37,586.89a13.67,13.67,0,0,1-9.65,1.65c-4.74-.63-9.63-.14-14.46-.16-.8,0-1.76,0-2-1a1.44,1.44,0,0,1,1.26-1.81c4.65-1,4.56-4.66,4.56-8.22q0-37.73,0-75.43c0-2.64-.11-5.1-3.54-5.52-.87-.11-1.64-.52-1.52-1.56s1-1.22,1.75-1.55a52.18,52.18,0,0,0,11.35-6.21c1.08-.82,2.4-2.25,4-1.29,1.3.8.75,2.43.76,3.71,0,11.65,0,23.31,0,35,0,1.22-.72,2.94.9,3.53,1.18.43,2-.92,2.86-1.65,5.26-4.6,11.19-6.84,18.32-6.1,6.42.67,11.18,4.23,13,10.57a46.64,46.64,0,0,1,1.88,12.77c0,11.49.08,23,0,34.47,0,3.95.6,7,5.33,7.29,1.24.07,2.43.56,2.39,2s-1.52,1-2.35,1.32a5.15,5.15,0,0,1-2.84.64c-5.9-1.35-11.77-.28-17.65,0-1.37.08-2.81,0-3.3-1.52s.85-2,1.85-2.51c3.24-1.8,3.73-5,3.75-8.15.09-13.15.11-26.31-.07-39.46-.1-7.24-4.36-11.38-11-11.31-7.48.08-11.26,4.6-12.16,11.88-1.47,11.78-.44,23.52-.77,35.28C1272.73,579.08,1270.76,585.84,1280.37,586.89Z"/><path class="cls-2" d="M966.66,588.45c-8.32,0-16.65,0-25,0-1.2,0-3,.65-3.4-1.06a2.8,2.8,0,0,1,2.11-3c6.75-1,6.27-6.68,6.33-11,.32-22,.17-44,.11-65.95,0-3.83-1.47-6.72-5.81-7.38-1.18-.17-3-.53-2.86-2.2.11-2,2-1.41,3.16-1.42,16.49-.08,33-.06,49.47-.13,2,0,3.2.45,3.18,2.7,0,5.67,0,11.33-.05,17,0,1,.07,2.14-1.25,2.35a2.27,2.27,0,0,1-2.38-1.49c-1.21-2.55-2.16-5.22-3.46-7.72-3.68-7.1-14.48-11-22-8.32-4.25,1.5-3.29,5.26-3.4,8-.29,7.63.21,15.29.22,22.94,0,2.73.93,3.74,3.75,3.89,11,.59,12.58-.2,17.06-9.53.51-1.06.91-2.42,2.29-2.27,1.63.19,1.23,1.73,1.24,2.81,0,8,0,16,0,24,0,1.2.47,3.05-1.38,3.24-1.51.15-2.05-1.46-2.6-2.67-.27-.6-.37-1.27-.59-1.9-2.78-8.11-9.69-11.52-17.76-8.92-2,.64-1.9,2.11-1.9,3.57,0,10-.13,19.93.17,29.88.23,7.4,3.71,10.42,11.06,10.5,9.71.1,15.15-4.33,18-14,.85-2.85.14-8.26,4.33-7.63,3.27.5,1.18,5.43,1.51,8.36.51,4.43-.3,8.9.52,13.39.6,3.28-1.88,4.15-4.71,4.15h-26Z"/><path class="cls-2" d="M1634.92,586c11.25-1.87,9-10.31,9-17.66q0-29.75,0-59.47c0-4.57-.4-8.86-6.63-8.79a2,2,0,0,1-2.16-2.23c.12-1.69,1.63-1.43,2.7-1.43,16.66-.08,33.31-.08,50-.17,2.3,0,3.31.77,3.26,3.18-.11,5.33,0,10.66,0,16,0,1.1.26,2.57-1.31,2.82-1.32.2-2.12-.82-2.61-1.94s-.92-2.5-1.47-3.71c-4.66-10.27-10.1-13.34-21.35-12.23-3.77.37-5.63,2.06-5.55,6.09.17,8.33.18,16.66,0,25-.08,3,1.1,4.25,3.84,4.59,9.08,1.12,13.48-1.35,17.16-9.74.47-1.06.69-2.63,2-2.44,1.81.26,1.31,2.06,1.31,3.29q.07,11.25,0,22.49c0,1.59.44,3.9-1.63,4.2s-2.17-2-2.6-3.52c-2.13-7.78-9.72-12-17.65-10-2.16.55-2.41,2-2.41,3.76,0,10-.18,20,.23,30,.15,3.7,1.18,7.74,5.5,9.26,5.68,2,10.93,1.09,16.09-2.11,5.87-3.65,6.92-9.79,8.88-15.53.51-1.48.25-3.66,2.79-3.26s1.6,2.57,1.63,4c.1,6-.06,12,.09,18,.08,3-.9,4.21-4,4.18-17-.14-34-.16-51-.23C1637.69,588.44,1636.31,588.54,1634.92,586Z"/><path class="cls-2" d="M1828.2,529.1c2.19-1.52,4.29-2.79,6.17-4.33,8.33-6.78,17.43-6,24.29,2,12,14.16,11.36,41.79-1.07,55.55-6.61,7.32-14.46,10-23.76,6.8-4.44-1.53-5.22-.15-5.11,3.84.18,6.16.15,12.33,0,18.49-.07,3.83,1.16,6.16,5.41,5.88a7.78,7.78,0,0,1,2,.12c1.32.28,2.89.64,2.54,2.39s-2.08,1.43-3.31,1.22c-6.46-1.09-13-.49-19.43-.51-2,0-4,.41-6,.57-1.25.1-2.5-.25-2.67-1.62s1.05-1.82,2.26-2.12c6.88-1.69,7.2-2.09,7.2-9.19,0-23.16-.1-46.32,0-69.48,0-3.61-.63-6.14-4.54-7-3.28-.7-3-2.1-.56-3.72,3.62-2.44,8.11-3.39,11-7.19.71-.92,5.15-2.47,4.42,2.6C1826.91,525.15,1827.77,527,1828.2,529.1ZM1853.77,557a54,54,0,0,0-3.92-21c-2-5-7.56-8.62-12-8.09-4.91.58-8.29,3.36-8.58,9.37-.63,13.4-1.5,26.88.67,40.25.74,4.55,2.86,8.27,8,8.83,5.36.58,8.58-2.35,11.06-6.81C1853.14,572.09,1853.2,563.94,1853.77,557Z"/><path class="cls-2" d="M1096.17,621.35a23,23,0,0,1-13.33-3.08c-11.77-6.45-11.44-17.26-2.44-25.44,4.91-4.47,5.09-4.28,1.13-9.46-6-7.85-5.73-9.3,2.65-14.49,5.46-3.4,5.77-3.77.63-8-11.62-9.5-9.52-28.67,0-36.22,6.27-5,13-6.09,20-3.58,6.07,2.17,12,3.81,18.45,3.29,1.86-.15,3.63-.22,3.68,2.65s-1.55,3.42-3.77,3.14c-4.57-.58-5,.77-3.55,5.08,5.15,14.87-4.31,28.57-21.66,32-2.76.54-5.6.75-8,2.41-3,2-2.76,4,.25,5.6a20.67,20.67,0,0,0,9.65,2,63,63,0,0,1,13.3,1.67c15.32,3.48,16.34,18.53,11.31,28.34C1118.51,618.84,1107.77,621.1,1096.17,621.35Zm1.29-32.92c-8-.13-13.46,5.1-13.58,13.1-.14,9.2,6.57,15.52,16.73,15.76,9.51.23,17.1-6.3,17.24-14.83S1110.52,588.64,1097.46,588.43Zm-7.7-45.35a35,35,0,0,0,2.13,14.75c1.28,3.17,3.54,5.25,7,5.49,3.69.25,5.78-2,7.1-5.15a36.46,36.46,0,0,0,2.47-18c-.45-4.21-.52-8.66-3-12.43-1.7-2.57-3.63-4.78-7.17-4.45s-5.52,2.55-6.74,5.72C1089.85,533.43,1089.63,538,1089.76,543.08Z"/><path class="cls-2" d="M2379.72,558.22c0,8.15,0,14.65,0,21.14,0,2.68.15,5.13,3.83,5a2.12,2.12,0,0,1,2.29,2.61c-.17,1.51-1.63,1.36-2.78,1.41-6.28.27-12.58-.73-18.85.74-1.19.28-3.61-.13-4-2-.48-2.13,1.61-1.52,2.73-1.86,2.48-.75,3.36-3,3.49-5,1-15.35.57-30.73.53-46.1,0-1.48-.42-2.66-2-3.07-5.62-1.5-1.87-3.62-.1-4.89a48.77,48.77,0,0,1,9.4-5.39c4.55-1.9,3.58,2.25,4,4.41.2,1-1,2.32.58,3,1.26.54,2-.49,3-1.21,4.12-3.1,8.5-6.06,13.73-6.54,13.35-1.23,19.55,4,20.23,17.91.57,11.79,0,23.64.32,35.46.12,4.87-1.83,11.27,6.71,11.9,1.82.14.83,1.93-.4,2.84-1.81,1.33-3.93,1.09-5.78.75-4.77-.9-9.41-1.31-14.2,0-1.31.36-3.65,1-4.34-1.11-.75-2.33,1.46-2.49,3-3.08a3.94,3.94,0,0,0,2.71-3.84c-.34-15.26,1.42-30.58-.94-45.77-1-6.6-3.79-8.9-9.2-9.11-6.45-.26-11,2.53-12.73,8.18C2378.39,542.87,2380.37,551.45,2379.72,558.22Z"/><path class="cls-2" d="M1241,557.89c0,6.49-.15,13,0,19.48.12,3.87.46,8,6,8.07a1.59,1.59,0,0,1,1.73,1.44c.08,1-.82,1.16-1.54,1.6-3.37,2-6.75.1-10.11.18-4,.08-7.91-.11-11.87-.23-.79,0-1.83.07-2-1-.1-.52.26-1.59.58-1.66,6.59-1.45,4.72-7.48,4.83-11,.41-13.08,1.08-26.23-.56-39.31-.52-4.11-4.71-8.46-8.85-9-5.53-.76-11.52,2.48-13.31,7.39a29.69,29.69,0,0,0-1.81,10.24c0,11.15,0,22.31,0,33.47,0,4.17.36,7.81,5.76,8a1.83,1.83,0,0,1,1.76,1.53c.16,1.49-1.36,1-2.07,1.5-2.34,1.67-4.46-.41-6.72-.27-4.29.27-8.61-.3-12.86,1-1.23.36-3.17.76-3.85-1.2s.8-2.45,2.37-2.89c3-.84,3.45-3.41,3.46-5.95.07-14.65,0-29.31.06-44,0-2.35-.84-3.77-3.1-4.43-2.65-.77-2.27-2.08-.35-3.26,3.68-2.25,7.43-4.4,11.18-6.55,2.48-1.42,3.31-.3,3.21,2.18a27.3,27.3,0,0,0,0,3c.06.94-.32,2.13.73,2.7s1.74-.61,2.47-1.15c3.85-2.9,7.54-6.13,12.37-7.28,13-3.07,21.85,4,22.4,17.94.26,6.49.05,13,.05,19.49Z"/><path class="cls-2" d="M2051.94,559.3c0,7.51.11,13.67-.05,19.83-.08,3.26.79,5.51,4.26,6.2,1.36.26,2.83.82,2.32,2.53-.45,1.51-2,1.72-3.38,1.4a37.78,37.78,0,0,0-17.66,0c-1.16.26-2.81.65-3.45-1.06s.51-2.43,1.91-2.82c3.85-1.07,3.82-4.43,3.85-7.26.15-14.15,0-28.31.11-42.46,0-2.74-1.36-3.27-3.49-3.77-1.2-.28-2.87-.67-3-2.22s1.64-1.38,2.54-1.94c3.39-2.1,7-3.87,10.31-6.06s4.73-.49,4.55,2.53c-.3,5.21.71,5.53,4.66,2.24,5.61-4.67,11.95-7.49,19.69-6.17,5.88,1,9.73,4.07,11.7,9.49a34.39,34.39,0,0,1,2,11.73c0,12.73,0,25.46.08,38.19,0,3,.73,5.71,4.66,5.7,1.37,0,3,.27,2.69,2-.24,1.54-1.9,1-3,1-6.43.35-12.93-1-19.32.87-1.17.34-2.85.39-3.15-1.48-.22-1.35.49-2.17,1.88-2.43,3.41-.63,3.94-3.32,4-6,.07-13.32.21-26.64,0-40-.13-6.74-5-12.6-9.87-13-8-.57-12.56,3-14.19,11.31C2051.1,545.34,2052.39,553,2051.94,559.3Z"/><path class="cls-2" d="M1007.6,529.82c4.52-4.45,10-5.93,14.42-9.06,1.32-.93,2.61-.35,2.74,1.52.09,1.32,0,2.66.1,4,.07.92-.42,2.17.78,2.62s1.83-.59,2.55-1.21c5.84-5.09,12.17-8.63,20.35-7.44,5.93.87,10.33,3.53,12.28,9.42a41.52,41.52,0,0,1,2.08,13.24c0,11.66,0,23.32,0,35,0,3.91.83,7,5.38,7.53,1,.13,2.23.63,2.17,1.69-.08,1.62-1.67,1.32-2.74,1.35-6.77.18-13.59-.81-20.31.9a2.58,2.58,0,0,1-3.26-1.65c-.65-1.94,1.1-2.08,2.27-2.52,3.21-1.22,4.49-3.42,4.45-6.93-.15-12.65.06-25.31-.1-38-.14-10.59-5.21-15.32-14.27-13.71-6.13,1.08-10.08,5.76-10.33,14-.4,13.14-.13,26.31-.12,39.46,0,3.1,1.46,5,4.7,5.35,1.35.13,2.36.69,1.91,2.2a2.34,2.34,0,0,1-2.72,1.68,128.18,128.18,0,0,0-19-.83c-1.08,0-2.57.38-2.94-1.13s1-1.77,2.12-2.15c3.36-1.16,3.69-4.13,3.71-6.93.11-14.16-.08-28.32.12-42.47C1014,531.6,1011.26,530.94,1007.6,529.82Z"/><path class="cls-2" d="M2245.84,427.09c-.07-3.11-.52-6.2,0-9.34,1.31-7.3,5.07-12.15,12.35-14.48,14.66-4.71,25.65,3.65,27.38,17.12.85,6.56,1,13.19-1.35,19.67-4.25,11.91-18.41,18-29.34,11.8-6.28-3.57-8.41-10.31-9.06-17.3C2245.64,432.09,2245.84,429.58,2245.84,427.09Z"/><path class="cls-2" d="M2567,426.66c.11,7.14-1,12.62-3.87,18-6,11.41-22,10.69-29.74,5.38-1.62-1.1-2.67-3.35-3.45-5.29-3.78-9.4-4.84-19-2.11-29,2-7.21,5.93-11.52,13.47-13.17,12.13-2.65,22.24,3.64,24.85,15.94A40.9,40.9,0,0,1,2567,426.66Z"/><path class="cls-2" d="M1366.9,552.67c0,6.66,0,13.32,0,20,0,2.65-.06,5.7,2.37,7.22,2.75,1.72,4.52-.65,6.18-2.61a2,2,0,0,1,1.7-.61c1,.29.75,1.34.76,2.12.08,4.83-5.69,11-11.41,12.28-4.12.91-8.61-2.49-10.68-8-1.71-4.51-4.15-2.05-5.87-.24-3.48,3.69-7,7-12.35,7.75-7.94,1.12-12.38-2.53-12.62-10.08-.32-10,5.71-16.64,12.91-22.47,2.71-2.19,5.56-4.21,8.22-6.47s6.62-3.55,7.35-7.16a47.22,47.22,0,0,0,.09-16.89c-.61-3.68-3.79-4.91-7.38-3.81-4.54,1.39-7.12,4.73-8.25,9.21-.82,3.22-1.43,6.54-3.18,9.4s-4.11,4.83-7.43,3.43-2.77-4.57-2-7.37c3.76-13.45,22.73-22.64,35.66-17.34,5.11,2.09,5.66,6.64,5.81,11.15.23,6.82.06,13.66.06,20.49Zm-12.21,7.66a60.68,60.68,0,0,0,0-6.47c-.21-2-1.51-3.21-3.4-1.7-6.66,5.33-13,10.94-13.43,20.42-.15,3.72,1.27,6.67,5,7.6a7.18,7.18,0,0,0,8.48-3.56C1354.38,571.56,1354.79,566,1354.69,560.33Z"/><path class="cls-2" d="M1502,551.35c0,7.94,0,14.61,0,21.27,0,2.66,0,5.72,2.28,7.28,2.76,1.85,4.43-.86,6.19-2.58a2.27,2.27,0,0,1,1.72-.65c1,.23.8,1.27.85,2.05.3,4.53-5,10.36-11,12.07-3.17.91-7.59-1.84-9.59-6-3-6.22-3.68-6.37-8.17-1.14-4.08,4.74-9,8.39-15.34,7-7.43-1.62-10.48-11-7.07-19.26,3.29-8,10.52-12.25,16.51-17.69a1.39,1.39,0,0,1,.41-.27c11.77-5.13,11-15.28,10-25.38-.38-4-3.82-5.73-7.81-4.26-4.42,1.63-6.88,5-8,9.49-.7,2.74-1.17,5.61-2.39,8.1-1.54,3.14-4.23,5.56-8,4.13s-2.86-4.73-1.92-7.68c4.18-13.28,22.78-22,35.52-16.65a8.06,8.06,0,0,1,5.31,7C1502.53,536.36,1501.46,544.5,1502,551.35Zm-12.19,8.81c0-1.85.15-4,0-6.15-.18-2-1.33-3.41-3.31-1.93-6.47,4.84-12,10.53-13.44,18.9-.79,4.71,1.72,8.67,5.42,9.29,4.64.78,7.68-1.58,9.28-5.71A30.94,30.94,0,0,0,1489.77,560.16Z"/><path class="cls-2" d="M2464.71,556.26c.3-10.57,1.88-20.46,9.59-28.87,10.32-11.26,25.06-9.38,34-.2,10.54,10.8,11.13,24,8.9,37.65-2.09,12.77-9.58,21.27-21.81,25.79a13.15,13.15,0,0,1-11.82-1.34C2471.07,581.5,2464.09,572.4,2464.71,556.26Zm40.24-.38c.2-8.37-.83-16.52-4.08-24.32-1.71-4.12-4.44-7.38-8.92-7.73-4.65-.37-7.73,2.64-9.34,6.86-6.35,16.69-6.18,33.33.85,49.77,1.59,3.71,4.46,6.14,8.89,6s6.48-3.12,8.11-6.42C2504.23,572.47,2505.15,564.26,2505,555.88Z"/><path class="cls-2" d="M1952.46,550.59c-4,0-8,.22-12-.07-3.47-.26-5.33,1.63-5.39,4.42-.19,8.86.17,17.69,7.19,24.52,5,4.9,9.25,5.15,15.58,1.81,3.59-1.9,7.26-3.23,8.35-7.73A2.27,2.27,0,0,1,1969,572c1.49.41,1,1.92.88,3-.44,6.08-9.43,14-17,15.52-11.13,2.26-19.57-1.28-26.3-12.33-10.06-16.5-5.66-42.31,7.3-54.14a18.4,18.4,0,0,1,12.67-4.4c19.48.24,22.24,11.95,23.31,27.48.19,2.79-1.63,3.39-3.83,3.42-4.49,0-9,0-13.49,0Zm-8.9-3.18a36.19,36.19,0,0,0,9.38-.93,5.79,5.79,0,0,0,4.74-5.13c.65-4.63.57-9.28-1.71-13.6a8.31,8.31,0,0,0-14-1.48,32.38,32.38,0,0,0-6.89,16.27c-.42,2.86.66,4.92,4,4.87C1940.57,547.39,1942.07,547.41,1943.56,547.41Z"/><path class="cls-2" d="M1579.05,550.9c-4.65,0-9.3-.08-14,0-3,.08-4.26,1.75-4.24,4.87.05,7.43,1,14.55,5.28,20.89,7.38,10.9,20.35,7,25.39-.62.46-.69.82-1.45,1.33-2.1s1.23-1.81,2.4-1.24.7,1.72.73,2.67a8.61,8.61,0,0,1-1.92,5.05c-9.5,14.11-31.85,14.88-40.9-.81-5.35-9.26-6.73-18.92-5.64-29.67a38.76,38.76,0,0,1,9.75-22.21c6.67-7.67,15.52-10.29,25.3-6.8s12.41,11.89,13.22,21c.75,8.35.22,8.63-8.26,8.62h-8.49Zm-8.2-3.64c1.83,0,3.67.14,5.49,0,5.56-.53,8.5-3.58,8.32-9.18a22.55,22.55,0,0,0-2.32-10.11c-3-5.51-8.68-6.54-13.27-2.26-3.13,2.92-4.78,6.74-6.13,10.7C1559.77,545.74,1561,547.5,1570.85,547.26Z"/><path class="cls-2" d="M1159.39,551.19c-4.16,0-8.32,0-12.48,0-2.66,0-4,1.07-4,3.84,0,7.74.87,15.21,5.49,21.84a14.78,14.78,0,0,0,24.75-.19c.65-1,1.11-2,1.7-3s1.18-2.25,2.64-1.54c1.29.62,1.18,1.85.85,3-2.28,8.22-8.36,12.68-15.94,15-12.37,3.82-24.43-2.71-29.71-16.7-5.64-15-4.61-29.78,4.51-43.28,6.9-10.19,20.12-13.42,29.9-7.95,7.8,4.36,13,16.84,10.7,25.59-.77,3-3.11,3.24-5.44,3.31-4.32.14-8.65,0-13,0Zm-6.75-4a59.61,59.61,0,0,0,6,0c4.76-.49,7.7-3.11,7.81-8,.09-3.95-.2-7.94-2.28-11.53-3.06-5.27-8.33-6.1-13-2.07-3.41,3-5,6.95-6.28,11.11C1141.92,546.08,1143,547.54,1152.64,547.2Z"/><path class="cls-2" d="M1990.72,558.67c.54,6.73,1.39,13.35,5.88,19,6.64,8.4,18.25,7.61,24.85-1.79a18.5,18.5,0,0,0,.94-1.76c.58-1,1.19-2.26,2.62-1.67s.93,2,.82,3.07c-.45,4.24-8.13,12.9-12.54,13.6-2.64.41-4.73,2-7.52,2.25-15.67,1.49-25.42-12.85-27.61-23.75-2.75-13.64-1.27-27,7.6-38.71,5.74-7.6,20.07-11.78,28.71-7.72,5.47,2.56,7.78,8,9.89,12.9a26,26,0,0,1,1.49,12.07c-.3,3.63-1.28,5.13-5.53,4.83-8.44-.61-17-.48-25.44-.33C1989.16,550.8,1991.31,555.49,1990.72,558.67Zm10.62-11.3c1.74-.14,4.89.19,8-.93,2.39-.88,4.17-2.29,4.48-4.8.55-4.46.57-8.95-1.32-13.18-2.71-6.09-8.9-7.27-13.74-2.59s-6.47,10.69-7.64,16.9c-.52,2.74,1.08,4.41,3.92,4.58C1996.64,547.45,1998.3,547.37,2001.34,547.37Z"/><path class="cls-2" d="M2336.43,550.59c-4.16,0-8.32,0-12.48,0s-6.36,1.69-6.12,6.37a50.49,50.49,0,0,0,4.56,18.36c2,4.44,5.82,8.13,10.68,7.76,5.87-.44,12.44-.88,15.89-7.32.73-1.36,1.29-3.86,3.22-3s1,3.48.36,4.91a22,22,0,0,1-15.34,12.46c-15.44,3.54-29.21-7.1-31.49-22.92-1.49-10.28-1.1-20.25,2.22-30,3.15-9.2,14.06-18.17,23.44-17.53,13.3.92,20.56,8.12,21.47,20.66.74,10.17.74,10.17-9.42,10.17Zm-9.09-3.16c15.64.9,16.56-6.79,12.61-18.28-2.49-7.26-9.76-8.33-14.78-2.44a28.78,28.78,0,0,0-5.37,10.57C2317.13,546,2318.2,547.47,2327.34,547.43Z"/><path class="cls-2" d="M2563.93,529.34c-.61,2.79,1.58,6.68-1.93,7.72-4.3,1.27-3.42-3.32-4.55-5.54-4.65-9.11-13-11.09-18.9-4.44-2.47,2.8-2.29,8.45,0,11.35,3.29,4.22,7.89,6.5,12.38,8.94a43.74,43.74,0,0,1,12.36,9.87c4.95,5.69,4.85,16.43,1.06,23.16-6.61,11.75-26.49,12.69-34.77,8.78-5.21-2.47-3.22-8.18-3.56-12.64-.09-1.22,1-2.31.66-3.8-.45-2,0-4.7,1.89-5,2.2-.3,4.38,2.05,4.85,4.06a25.25,25.25,0,0,0,7.47,12.92,8.73,8.73,0,0,0,14.26-3.25,16.8,16.8,0,0,0-9-22.1,50.75,50.75,0,0,1-14.92-9.68c-7.88-7.57-5.56-16.82,2.16-25.32,4.65-5.13,22.13-6,28.3-2.9C2565.44,523.34,2563.2,526.86,2563.93,529.34Z"/><path class="cls-2" d="M1891.75,532.29c4-2.59,5.73-5.92,8-8.69,2.84-3.44,10.4-4.7,13.69-2,3.83,3.15,4.6,10.8,1.46,14.42-3.55,4.1-8.41,3.13-10.41-1.92-.65-1.66-.08-4.5-3-4.49-2.42,0-3.81,2-4.91,3.82-2.9,4.86-3.4,10.42-3.56,15.85-.31,10,0,20-.14,29.94-.05,3.32,1,5.42,4.33,6.2,1.25.28,2.87.69,2.09,2.58-.63,1.5-2.12,1.5-3.46,1.2a41.27,41.27,0,0,0-18.17,0c-1.42.32-3,.46-3.83-1.36-1.09-2.32,1.13-3.55,2.12-3.75,5.43-1.07,4.84-5,4.84-8.88,0-12.65,0-25.3,0-37.94,0-3-.08-5.57-4.09-6-2.77-.31-2.26-2.24-.54-3.3,4.22-2.59,8.57-5,13-7.23,2.15-1.09,2.52.59,2.53,2.27C1891.76,525.81,1891.75,528.63,1891.75,532.29Z"/><path class="cls-2" d="M2435.76,555.3c0-7.82-.07-15.64,0-23.46,0-2.84-.14-5-3.89-4.53a2.32,2.32,0,0,1-2.79-1.56c-.34-1.16.58-1.83,1.3-2.49,5.56-5.11,10.3-10.8,13.1-17.93.35-.88.76-1.94,2.06-1.81s1.16,1.35,1.47,2.24c1.29,3.74.65,7.6.57,11.38-.07,3.23,1,4.62,4.23,4.27a26.58,26.58,0,0,1,4,0,2.72,2.72,0,0,1,2.92,2.76c.09,2.07-1.17,2.83-3.09,3.11-8,1.17-8,1.2-8,9.18q0,19.47.13,38.94c0,2.38,0,4.9,2.87,5.67,2.59.7,3.79-1.48,5.21-3.06,1-1.11,1.37-3.67,3.61-2.24s.05,2.89-.55,4.15c-4,8.3-9.2,11.59-15.58,10-4.71-1.19-7.22-4.43-7.33-10.17-.15-8.15,0-16.3,0-24.46Z"/><path class="cls-2" d="M1398.36,532.12c2.81-3.1,5.2-6.06,7.91-8.67,4.08-3.94,9.12-4.7,12.67-2.24,2.94,2,4.33,7.83,3,12.29-1,3.25-3.05,5.11-6.56,4.88s-5.73-1.59-5.52-5.52c.08-1.63-.53-3.2-2.34-3.27a4.6,4.6,0,0,0-4.42,2.76c-1.84,4-4.06,8-4.09,12.65-.08,11.65-.07,23.3-.14,34.94,0,2.85.88,4.88,4,5.36,1.26.19,2.43.69,2,2.2a2.44,2.44,0,0,1-3.16,1.69,36.86,36.86,0,0,0-17.16.07c-2.07.48-3.63-1-5.29-1.56,0-.53,0-.81,0-.82,8.44-2.34,7.48-9.17,7.47-15.57,0-11,0-22,0-32.94,0-3.34.24-6.77-4.26-7.78-2.12-.48-1.66-1.88-.24-2.74q6-3.65,12.06-7c1.89-1,2.7-.12,2.77,1.9C1397.14,525.69,1396.61,528.73,1398.36,532.12Z"/><path class="cls-2" d="M1445.75,552c0,9.15,0,18.29,0,27.44,0,2.9.31,5.33,3.8,5.92,1.15.19,2.54.58,2.14,2.12s-1.64,2-3.16,1.63a46,46,0,0,0-18.66,0,3.11,3.11,0,0,1-3.67-1.86c-.58-2,1.49-1.73,2.63-2,2.89-.75,4.09-2.75,4.1-5.51,0-14.63,0-29.26.08-43.89,0-2.55-1.3-3.53-3.69-3.64a2.36,2.36,0,0,1-.27-4.69c5.13-.3,8.81-3.69,12.93-6,2.93-1.68,3.79-1.15,3.77,2.07-.06,9.48,0,19,0,28.43Z"/><path class="cls-2" d="M2165.1,587.23c8.7-2.05,7.75-8.5,7.73-14.51,0-11.49,0-23,0-34.46,0-3.18.16-6.29-4.35-7.11-2.53-.46-1.48-2.25.17-2.91,4.82-1.9,9.17-4.64,13.73-7,4-2.08,2.49,2,2.51,3.22.16,12,.08,24,.07,35.95,0,6.16.07,12.32,0,18.48-.06,3.17.78,5.44,4.25,6.15,1,.21,2.55,0,2.6,1.74a2.22,2.22,0,0,1-2.26,2.21C2181.59,587.42,2173.41,589.43,2165.1,587.23Z"/><path class="cls-2" d="M2185.86,502.33c0,5.89-2.16,9.14-6.14,9.05-3.61-.08-5.72-3.11-5.8-8.34-.08-5.43,2.12-8.67,5.93-8.76S2185.82,497.16,2185.86,502.33Z"/><path class="cls-2" d="M1446,503c-.18,2.44.25,5.26-2.21,7.12a5.33,5.33,0,0,1-7.25-.2c-2.73-2.37-2.86-11.1-.23-13.91a5.14,5.14,0,0,1,7.16-.79C1446.22,497.07,1445.94,500.06,1446,503Z"/><path class="cls-1" d="M100.43,497.09c27.33,0,54.66,0,82-.06a14.62,14.62,0,0,1,8.39,2.47q107.87,69.57,215.76,139.13c3.78,2.44,6.17,2.41,10.06-.08q99.87-64,200-127.67c5.75-3.66,11.36-7.53,17.08-11.24A14.71,14.71,0,0,1,642,497q77,.17,154,0c4.42,0,5.59.8,3.91,5.19-2.07,5.43-3.7,11-5.22,16.66-.86,3.2-2.25,4.32-5.8,4.33-44.16.14-88.32.53-132.48.74a15.44,15.44,0,0,0-8.8,2.63Q539,597.32,430.3,667.94c-5.16,3.36-10.46,6.52-15.47,10.09-2.48,1.77-4.25,1.51-6.63,0q-35-23-70-45.75Q256.44,579,174.73,525.77a12.19,12.19,0,0,0-7.06-1.79c-47.49-.32-95-.72-142.48-.93-3.74,0-5.7-.89-6.65-4.71a149.49,149.49,0,0,0-5.18-16.67c-1.53-4.05-.25-4.68,3.58-4.67,27.83.13,55.66.07,83.49.07Z"/><path class="cls-1" d="M116.58,418.28q54.49,0,109,0a16.57,16.57,0,0,1,9.77,2.83q86.11,57.29,172.32,114.43c3,2,4.9,1.93,7.8,0,19.61-13.22,39.36-26.22,59.05-39.31q50.19-33.37,100.35-66.77c2.15-1.43,4.57-2.57,6.42-4.32,7.19-6.77,15.86-6.94,25.07-6.9q101,.51,202,.43c4.11,0,5.63.81,4.92,5.26a112.53,112.53,0,0,0-1.38,16.9c0,3.83-1.42,4.66-5,4.65-36-.15-72-.13-108-.15q-43.49,0-87-.07a12.83,12.83,0,0,0-7.49,2.05Q510,509.13,415.52,571c-3,2-4.93,1.92-7.87,0Q314.4,509.11,221.06,447.4a13.43,13.43,0,0,0-7.9-2.22Q110.42,445,7.68,444.86c-4.21,0-6.37-.65-6.29-5.55A104,104,0,0,0,.1,422.89c-.5-3.57.84-4.26,4-4.23,10.66.1,21.33,0,32,0h80.49Z"/><path class="cls-1" d="M141.75,340.15q65.48,0,131-.06a16.34,16.34,0,0,1,9.35,2.62q62.6,40.23,125.23,80.42c3.34,2.16,5.44,2,8.74-.15q63.74-40.77,127.66-81.22a10.74,10.74,0,0,1,6.11-1.64q126.21.11,252.43,0c4.29,0,6.33,1,6.62,5.63a100.31,100.31,0,0,0,2.28,15.79c1,4.56.08,5.93-4.87,5.9-35.82-.26-71.65-.22-107.47-.26q-65.49-.08-131-.2a17,17,0,0,0-9.74,2.92c-46.7,29.85-93.54,59.48-140.07,89.59-5.17,3.34-8.17,3.07-13-.07q-69.1-45.24-138.49-90.07a13.66,13.66,0,0,0-7.91-2.35q-125.2.54-250.43.92c-7.93,0-6.84-.1-5.79-6.75,1-6.24,1.82-12.51,2.38-18.8.18-2,1.08-2.1,2.48-2.12,2,0,4,0,6,0H141.75Z"/><path class="cls-1" d="M654.86,289q-66.48,0-133,0a16.56,16.56,0,0,0-8.92,2.39c-32.5,19.29-65.09,38.41-97.57,57.73-2.83,1.68-4.73,1.75-7.59,0-31.59-19.16-63.3-38.12-94.92-57.25a18.89,18.89,0,0,0-10.3-2.9q-138.21.29-276.42.4c-1.34,0-2.67-.05-4,0-2.37.14-3-.86-2.12-3,2.77-6.95,5.65-13.86,8.21-20.89,1.21-3.35,3.74-2.71,6.13-2.72q45.24-.19,90.47-.33,96.48-.21,193-.42a17.41,17.41,0,0,1,9.78,2.75c26.29,16.36,52.72,32.49,79,48.84,3.51,2.19,6,2.4,9.78.11,27.36-16.78,54.91-33.23,82.36-49.85a11.93,11.93,0,0,1,6.56-1.84q136,.35,271.92.5c5.14,0,7.88,1.46,9.43,6.33a175.64,175.64,0,0,0,6.39,16.76c1.68,3.85.37,4.42-3.24,4.39q-49.48-.39-99-.53c-12-.05-24,0-36,0Z"/><path class="cls-2" d="M745.31,193.4a22.44,22.44,0,0,1-4.85-4.83,317,317,0,0,0-30-35.73c-7-7.22-14.82-13.61-22.15-20.51a169.45,169.45,0,0,0-20.86-17.28c-8-5.41-15.56-11.42-23.46-16.93a283.13,283.13,0,0,0-35.87-21.07c-11.07-5.51-21.9-11.56-33.39-16.14-10.34-4.13-21.26-6.86-31.43-11.32-9.76-4.28-20.1-6.38-30.2-9A340.84,340.84,0,0,0,474,33c-11.31-1.57-22.54-3.59-34-4.24-15.44-.88-30.84-1.79-46.35-1-15.95.84-31.85,1.88-47.63,4.34-19.15,3-38.24,6.08-56.75,12.34-5.5,1.86-11.47,3-17,5C259.44,54.09,246.6,58.69,234,64.26c-14.93,6.62-29.22,14.21-43.53,21.9-9.63,5.18-18.1,12.07-27.13,18.13-7.16,4.8-14.6,9.25-20.93,15.12-6.79,6.29-13.66,12.59-20.72,18.45-10.74,8.93-19.83,19.26-29.3,29.32-7.77,8.25-14.31,17.47-21.32,26.33-.78,1-1.17,2.38-2.78,2.43-.15-.43-.44-.88-.33-1,5.88-7.26,8.28-16.77,15-23.44,3.93-3.93,5.84-9.34,9.75-13.09,4.79-4.6,6.33-11.54,12.27-15.37,4.21-2.71,6.22-7.81,9.49-11.65,8.61-10.09,19.33-18,27.71-28.4a40.91,40.91,0,0,1,12.24-10.17,37.31,37.31,0,0,0,9.7-7.54c6.47-7,15.19-10.81,22.31-16.93,6-5.16,13.66-8.43,20.65-12.41,8.65-4.91,17.52-9.44,26-14.6C244,34.71,256,30.56,267.52,25.52c8-3.49,16.92-4.79,25.06-8,15.58-6.2,32.19-8.14,48.3-12,12-2.88,24.63-3.37,37-4.26C390.51.33,403.15-.25,415.82.11,458.26,1.32,499.55,8.62,539.55,23A396.59,396.59,0,0,1,654.19,87.46c20.93,16.82,39.71,35.85,57.18,56.27,11.6,13.56,20.92,28.73,31.75,42.83,1.36,1.77,1.92,4.17,2.85,6.28C745.76,193,745.54,193.22,745.31,193.4Z"/><path class="cls-1" d="M346.67,219.14c12.22-7.14,23.51-13.78,34.84-20.37,9.05-5.27,18.18-10.42,27.18-15.8,2.09-1.25,3.66-1.48,5.86-.2q29.51,17.26,59.16,34.29c3.21,1.85,2.28,2.72-.25,4.18q-29.19,16.81-58.3,33.79c-1.68,1-3.18,2.12-5.45.79C389.05,243.72,368.33,231.73,346.67,219.14Z"/><path class="cls-2" d="M66.69,198.08l-.17,1.38-.62-.3.8-1.07Z"/><path class="cls-2" d="M746,192.84c.54.45,1.08,1.2.46,1.6-.81.52-.85-.55-1.12-1C745.54,193.22,745.76,193,746,192.84Z"/><path class="cls-2" d="M66.7,198.09c.17-.25.34-.5.5-.75.54.73,0,.72-.51.74Z"/></g></g></svg>