<svg xmlns="http://www.w3.org/2000/svg" viewBox="0 0 1628.93 1266.15"><defs><style>.cls-1{fill:#355c86;}.cls-2{fill:#a9a9ac;}</style></defs><title>Ativo 1</title><g id="Camada_2" data-name="Camada 2"><g id="Camada_1-2" data-name="Camada 1"><path class="cls-1" d="M747.88,926.76c10.52,2.56,20.36,4.87,29.54,9.34,27.58,13.41,41,35.88,42.47,66,1.45,30.5-7.15,56.92-32,76.41-14.74,11.57-31.88,16.93-50.33,18.57-17.85,1.59-35.64-.1-53.4-1.39-19-1.37-37.91-2.3-56.91-1-4.15.28-8.32.68-12.46-.07-2.71-.5-5.42-1.32-5.88-4.52-.49-3.38,1.33-5.85,4.3-7.15a45.09,45.09,0,0,1,8.06-2.51c11.32-2.55,14.75-6.49,15.4-18.1.15-2.66.11-5.33.11-8V827.88c0-13-2.25-15.53-15.24-17.23-3.63-.48-7.3-.71-10.77-2-1.69-.62-3.77-1-4.09-3.2-.36-2.43,1.13-4.15,3-5.36a35.82,35.82,0,0,1,13.44-5.16c42.15-7.38,84.36-9.6,126.45.12C766.1,798.86,781,806.28,791.76,820c21.47,27.26,16,68-11.89,90.2C770.49,917.64,759.86,922.65,747.88,926.76Zm-65.45,69.57h.05q0,21.74,0,43.47c0,9.34.57,18.63,3.23,27.66,3.2,10.91,9.81,16.46,20.93,17.73,23.56,2.68,43.08-7.67,54.09-29.34,12.86-25.31,14.62-52.13,7.59-79.15C762.68,955,748.62,940.44,726,935.54c-13.35-2.89-26.46-.52-39.59,2-3.42.64-4,2.24-4,5.38C682.51,960.69,682.43,978.51,682.43,996.33Zm.09-127.72h-.08c0,14.31.07,28.62-.06,42.93,0,3.08.86,4.21,4.07,4.77a85.73,85.73,0,0,0,26.79.75c15.78-2.23,28.6-9.3,37.33-23,8-12.61,9.79-26.63,9.27-41.17C758.46,815,731,797.83,698,803.24c-8.52,1.4-12.6,5.84-14.18,14.53a76.11,76.11,0,0,0-1.26,13.89C682.54,844,682.52,856.29,682.52,868.61Z"/><path class="cls-1" d="M506.45,497.09c27.33,0,54.66,0,82-.06a14.62,14.62,0,0,1,8.39,2.47Q704.7,569.07,812.59,638.63c3.78,2.44,6.17,2.41,10.06-.08q99.87-64,200-127.67c5.75-3.66,11.36-7.53,17.08-11.24A14.71,14.71,0,0,1,1048,497q77,.17,154,0c4.42,0,5.59.8,3.91,5.19-2.07,5.43-3.7,11-5.22,16.66-.86,3.2-2.25,4.32-5.8,4.33-44.16.14-88.32.53-132.48.74a15.44,15.44,0,0,0-8.8,2.63Q945,597.32,836.32,667.94c-5.16,3.36-10.46,6.52-15.47,10.09-2.48,1.77-4.25,1.51-6.63,0q-35-23-70-45.75Q662.46,579,580.75,525.77a12.19,12.19,0,0,0-7.06-1.79c-47.49-.32-95-.72-142.48-.93-3.74,0-5.7-.89-6.65-4.71a149.49,149.49,0,0,0-5.18-16.67c-1.53-4.05-.25-4.68,3.58-4.67,27.83.13,55.66.07,83.49.07Z"/><path class="cls-1" d="M522.6,418.28q54.49,0,109,0a16.57,16.57,0,0,1,9.77,2.83q86.11,57.29,172.32,114.43c3,2,4.9,1.93,7.8,0,19.61-13.22,39.36-26.22,59-39.31q50.19-33.37,100.35-66.77c2.15-1.43,4.57-2.57,6.42-4.32,7.19-6.77,15.86-6.94,25.07-6.9q101,.51,202,.43c4.11,0,5.63.81,4.92,5.26a112.53,112.53,0,0,0-1.38,16.9c0,3.83-1.42,4.66-5,4.65-36-.15-72-.13-108-.15q-43.48,0-87-.07a12.83,12.83,0,0,0-7.49,2.05Q916,509.13,821.54,571c-3,2-4.93,1.92-7.87,0Q720.42,509.11,627.08,447.4a13.43,13.43,0,0,0-7.9-2.22q-102.73-.17-205.48-.32c-4.21,0-6.37-.65-6.29-5.55a104,104,0,0,0-1.29-16.42c-.5-3.57.84-4.26,4-4.23,10.67.1,21.34,0,32,0H522.6Z"/><path class="cls-1" d="M547.77,340.15q65.47,0,131-.06a16.34,16.34,0,0,1,9.35,2.62q62.59,40.23,125.23,80.42c3.34,2.16,5.44,2,8.74-.15q63.74-40.77,127.66-81.22a10.74,10.74,0,0,1,6.11-1.64q126.21.11,252.43,0c4.29,0,6.33,1,6.62,5.63a100.31,100.31,0,0,0,2.28,15.79c1,4.56.08,5.93-4.87,5.9-35.82-.26-71.65-.22-107.47-.26q-65.49-.08-131-.2a17,17,0,0,0-9.74,2.92c-46.7,29.85-93.54,59.48-140.07,89.59-5.17,3.34-8.17,3.07-13-.07Q742,414.22,672.57,369.39a13.66,13.66,0,0,0-7.91-2.35q-125.2.54-250.43.92c-7.93,0-6.84-.1-5.79-6.75,1-6.24,1.82-12.51,2.38-18.8.18-2,1.08-2.1,2.48-2.12,2,0,4,0,6,0H547.77Z"/><path class="cls-1" d="M310.47,1095q-41.25,0-82.5,0c-2.65,0-5.31-.37-8-.59s-3.81-1.89-4.14-4.23,1.26-3.71,3.19-4.52a102.08,102.08,0,0,1,11.62-4.5c8.11-2.26,11.61-7.76,11.95-15.75q.23-5.25.23-10.5,0-111.75,0-223.49c0-3.82.12-7.65-.76-11.44-1.7-7.31-4.85-10.23-12.25-10.83-3.5-.28-7-.58-10.21-2.06-2.5-1.14-4-3.07-3.79-5.85.28-3.1,2.93-3.24,5.24-3.51a61.1,61.1,0,0,1,6.48-.41c54.83-.21,109.66.53,164.48-.85,2.79-.07,3.43.88,3.42,3.39-.05,20.5.1,41-.12,61.49,0,3,1.12,7.4-3.23,8.56-4.67,1.25-7-2.43-8.63-5.94-2.83-6-5.2-12.24-7.9-18.32-6.87-15.44-16.3-28.39-33.73-32.93a96.12,96.12,0,0,0-40.13-1.53c-7,1.14-10,4.47-11.23,11.48a38.79,38.79,0,0,0-.69,6.44q-.07,43.26,0,86.5c0,6,1.61,8.44,7.13,8.89,12.63,1,25.3,1.24,37.72-2.08,9.59-2.56,15.64-8.9,19.38-17.91,2.18-5.23,2.88-11,5.77-15.94,1.52-2.62,3.53-4,6.54-3.41,3.31.61,3.35,3.33,3.36,5.84q0,42,0,84a13.33,13.33,0,0,1-.15,2c-.46,3-1.09,6.18-4.67,6.9s-5.42-2.13-6.65-4.85c-1.43-3.16-2.33-6.57-3.47-9.86-1.3-3.77-2.51-7.58-3.94-11.3-4.78-12.45-14-18.55-27.25-18.72q-12.74-.17-25.49-.18c-4.23,0-7,2-7.61,6.33a48.91,48.91,0,0,0-.63,6.93c0,26.84-.13,53.67.08,80.5a103.72,103.72,0,0,0,3.53,27.15c3.49,12.51,11.77,19.47,24.41,21a79.06,79.06,0,0,0,27.79-1.47c22.18-5.18,32.73-21.23,39.05-41.37,2.24-7.14,2.91-14.69,5.8-21.66a17.2,17.2,0,0,1,3.2-5.59c2.08-2.16,4.65-2.46,7.38-1.75s2.85,3,3,5.17c.2,2.65.39,5.31.39,8,0,20.17.07,40.33,0,60.5,0,12.89-.68,13.56-13.51,13.59-26.82.07-53.65,0-80.47,0Z"/><path class="cls-1" d="M936.1,1095h-82c-2,0-4,0-6-.19-2.8-.21-5.46-1-6-4.22s2-4.61,4.6-5.6c3.72-1.44,7.41-3,11.23-4.15,7-2.12,10.2-7,10.69-14,.27-3.82.41-7.66.41-11.49q0-111.75,0-223.48c0-1,0-2,0-3,.06-14.37-3.62-20.39-17.5-20.3a10.6,10.6,0,0,1-7.78-2.94,5.13,5.13,0,0,1-1.64-5c.45-1.82,2-2.58,3.78-2.71,2.49-.19,5-.49,7.46-.5,53-.19,106,.24,159-.7,9.26-.16,9.25-.14,9.25,9.4q0,26.75,0,53.49a23.08,23.08,0,0,1-.06,3c-.35,2.81.59,6.43-3.37,7.38s-6.11-1.86-7.91-4.79c-3.32-5.43-4.92-11.62-7.56-17.36-1.11-2.42-2.21-4.84-3.34-7.25-9.17-19.57-24.85-29.35-46.16-30.39-8.3-.4-16.64-.74-24.91.84-7.36,1.41-10.73,4.77-11.68,12.17a72.66,72.66,0,0,0-.63,9q-.06,41.25,0,82.49c0,7.47,1.82,9.81,9.19,10.14,11,.47,22,.69,32.84-1.63,11-2.35,18.4-8.86,22.46-19.22,1.27-3.24,2.09-6.65,3.17-10a18.4,18.4,0,0,1,3.93-7.43,5.17,5.17,0,0,1,5.54-1.26c2.12.62,2.61,2.35,2.62,4.33,0,.83.11,1.66.11,2.49q0,40.5-.07,81a19.13,19.13,0,0,1-.76,6.91c-.77,2-2,3.48-4.16,3.88s-3.8-.79-5.07-2.47c-2.07-2.71-3-5.91-4-9.11A145.75,145.75,0,0,0,977,957.67c-4.9-11.88-13.51-18.23-26.43-18.44-8.83-.14-17.66-.17-26.49-.22-4.35,0-6.83,2.18-7.41,6.47a45.8,45.8,0,0,0-.6,5.94c0,26.33-.12,52.66.05,79a127.27,127.27,0,0,0,2.61,25.78c3.43,16,12.61,24.18,29,25,16.89.89,33-1.17,46.16-13.27,8.59-7.91,13.32-18.17,16.7-29.1,1.62-5.24,2.69-10.64,4.1-15.95a59,59,0,0,1,2.43-7.6c1.7-4.07,4.18-7.44,9.34-6.41s4.09,5.59,4.12,8.91q.26,33.75,0,67.5c0,9.69-1.18,10.87-11,10.91-27.82.12-55.64,0-83.46,0Z"/><path class="cls-1" d="M1060.88,289q-66.48,0-133,0a16.56,16.56,0,0,0-8.92,2.39c-32.5,19.29-65.09,38.41-97.57,57.73-2.83,1.68-4.73,1.75-7.59,0-31.59-19.16-63.3-38.12-94.92-57.25a18.89,18.89,0,0,0-10.3-2.9q-138.21.29-276.42.4c-1.34,0-2.67-.05-4,0-2.37.14-3-.86-2.12-3,2.77-6.95,5.65-13.86,8.21-20.89,1.21-3.35,3.74-2.71,6.13-2.72q45.24-.19,90.47-.33,96.48-.21,193-.42a17.41,17.41,0,0,1,9.78,2.75c26.29,16.36,52.72,32.49,79,48.84,3.51,2.19,6,2.4,9.78.11,27.36-16.78,54.91-33.23,82.36-49.85a11.93,11.93,0,0,1,6.56-1.84q136,.35,271.92.5c5.14,0,7.88,1.46,9.43,6.33a175.64,175.64,0,0,0,6.39,16.76c1.68,3.85.37,4.42-3.24,4.39q-49.49-.39-99-.53c-12-.05-24,0-36,0Z"/><path class="cls-1" d="M432.77,1044.36c1.05-12,.74-24.15,2-36.27.33-3.14,1.74-4.89,4.25-5.88,2.72-1.09,5.24-.3,7.19,2,3.43,4,5,9,6.47,13.91,4.58,15.86,9.67,31.5,18.18,45.79,5.27,8.85,11.47,16.82,21.05,21.38,20.94,10,45.53,2.36,58.37-18,12.5-19.82,11.23-44.92-2.53-64.9-12.34-17.91-29-31-46.24-43.63-17.07-12.5-34-25.16-48.07-41.21C431,891.81,428.38,850.67,448,822.81c12.23-17.39,29.86-26.66,50.38-30.54a127.86,127.86,0,0,1,62.19,3.78c1,.29,1.89.63,2.82,1,11.19,4.22,13.25,7.18,13.39,19.18.18,15.49.4,31,.55,46.48,0,2-.25,4-.38,6-.2,2.92-.5,5.75-4.07,6.58s-5.73-.73-7.62-3.41c-3.6-5.12-5.43-11-7.41-16.84a236.14,236.14,0,0,0-13.61-32.68c-6.91-13.31-17.07-20.75-32.58-20.47s-27.17,7.18-34.95,20.31c-10.81,18.23-7.9,44.81,6.46,61.17,10.85,12.35,24,22.1,37.15,31.74,18.43,13.49,36.81,27.09,52,44.3,16.31,18.45,21.38,40,19.77,64.56-2.61,39.59-40.53,77.59-90.58,78.16-14.34.17-28.64-.12-42.77-3-17.38-3.54-24.88-12-26.22-29.59C431.86,1061.15,433,1052.85,432.77,1044.36Z"/><path class="cls-2" d="M1255.78,843c0,8.17.09,16.33,0,24.49-.06,2.91.06,6.38-3.56,7.49-3.9,1.19-6.56-.77-8.71-4.06-4.65-7.08-6.4-15.3-9.32-23-4.35-11.52-8.85-22.93-16-33.13-5.8-8.28-13.82-11.86-23.65-12.77-30.46-2.82-48.5,24.9-45.31,51.67,2.26,19,12.71,32.19,26.67,43.37,17.38,13.93,35.22,27.31,52.77,41,10.08,7.88,19.88,16.43,27.2,26.76,8.47,12,14.43,25.36,15.17,40.76a129.92,129.92,0,0,1-1,23.69,74.71,74.71,0,0,1-16.71,37.76c-19.11,23.44-44.21,34.35-74.09,35-15.5.37-30.9-.41-46.07-4a28.58,28.58,0,0,1-22.33-29.39c.64-19.29,2.11-38.54,2.1-57.86,0-2.91-.45-7.11,3.4-8.5,4.56-1.66,7.94.2,10.85,5.5,4.36,8,5.89,16.91,8.8,25.38,4.82,14,10.8,27.48,19.56,39.66,16.16,22.48,51.75,21.71,69.15.51,18.65-22.72,17.09-52.59-2.61-77.38-13.77-17.32-31.7-29.77-49.18-42.78a401.59,401.59,0,0,1-35.16-29.48c-17-15.95-23.87-35.79-23.91-58.45,0-25.14,10-45,30.89-59.58,12.94-9,27.27-12.86,42.63-14.72,16.6-2,32.65.2,48.65,4.17a14.62,14.62,0,0,1,1.45.36c18.88,6.61,17,8.36,18.18,24.56.53,7.62.09,15.32.09,23Z"/><path class="cls-1" d="M197.65,1039c0,10.5-.17,21,.06,31.49.16,7.18-2.7,12.46-8.51,16.44-11.1,7.6-23.67,11.34-36.67,13.66-19.11,3.4-38.08,3.11-56.66-3.41-21.56-7.57-37.66-22.13-51.18-40-21.51-28.37-31.62-60.79-34.06-96-2-28.88.42-57.28,10.14-84.68C32,844.83,50.48,818.34,81.05,802.48c30.81-16,63-15.7,95.5-5.16,9.9,3.21,15,9.58,15,20.23.11,17.33.69,34.65.94,52,.05,3.34-.29,6.83-4.39,8.06s-6.77-.84-9-3.77c-4.22-5.51-6.36-12-8.54-18.48-3.24-9.63-6.74-19.16-11.53-28.14-13.88-26-42.39-31.38-65-12.17-11.51,9.8-18.37,22.69-23.37,36.62-7.56,21-10.34,42.93-11.18,65.15-1,26.7,0,53.31,4.25,79.68,3.69,23.1,9.87,45.53,22.43,65.65,6,9.61,13.38,17.91,24,22.66,20,9,40.65,1.75,53.61-18.65,8.24-13,11.27-27.61,13.9-42.4a111.28,111.28,0,0,1,4.66-18.86c1-2.82,2.2-5.59,4.39-7.74,3.65-3.6,8.57-2.41,10.15,2.48,1.31,4,1,8.25,1.1,12.4.12,9,0,18,0,27Z"/><path class="cls-2" d="M1452.32,987.1c-8.16,0-16.33-.11-24.49,0-6.75.12-10.38,2.72-11.95,9-4.78,19-10.38,37.75-13.66,57.05-.93,5.46-.7,11.19-.35,16.75a10.31,10.31,0,0,0,6.12,9.14c5.57,2.26,11.16,5,17.36,5a9.86,9.86,0,0,1,6.36,2.09c1.64,1.24,3.36,2.31,2.45,4.81s-2.25,4.18-5,4.06c-3.48-.15-7-.54-10.43-.7-19-.84-38,.44-56.92.67-2.84,0-6.46.49-7.07-3.14-.72-4.24.67-7.39,6-8.26,13.93-2.24,20.07-12.41,24-24.71,4.14-12.84,7.29-26,11.3-38.85s7.74-25.78,10.79-38.92c1.85-8,4.66-15.74,7.12-23.57,4.21-13.37,9-26.6,11.72-40.36,1.79-9.14,6.15-17.35,8.16-26.4,3.58-16.12,9.36-31.66,13.24-47.74,1.88-7.79,5.35-15.19,7.41-23s4-15.58,7-23.05c1.41-3.48,2.18-7.62,7-7.8,5.19-.19,6.54,4,7.7,7.8q9.27,30.71,18.33,61.5,12.44,42.06,24.78,84.15c5.55,18.9,10.67,37.94,16.61,56.71,6.7,21.15,11.85,42.78,19.65,63.57,1.4,3.73,3,7.37,4.74,11,3,6.36,8.48,9.26,15,10.08,2.36.29,4,1.45,5.76,2.54s1.68,3,1.54,4.91c-.15,2.07-1.62,3-3.27,3.24a24,24,0,0,1-6.44.36c-14.46-1.43-29-1.19-43.44-.74-13,.4-26.11-1.13-39.13.72-3,.43-7,.54-7.49-3.74s2.84-5.56,6.37-6.22c2-.36,3.91-.72,5.86-1.11,13.6-2.78,13.41-7.92,12.34-18.64a107.79,107.79,0,0,0-5-22.84c-4.88-14.78-7.61-30.15-12.64-44.88-2.72-8-5.21-10.15-13.62-10.35C1468.32,987,1460.32,987.1,1452.32,987.1Zm.85-13.23c5.33,0,10.66,0,16,0,12.72-.08,14.49-2.31,11-14.6q-10.48-37.41-21.21-74.76c-.93-3.25-1.09-8.08-5.09-8.18s-4.41,4.77-5.34,8c-4.71,16.27-9.28,32.57-13.83,48.89-2.63,9.43-5.29,18.87-7.62,28.38-2.13,8.68.75,12.21,9.57,12.3C1442.17,973.92,1447.67,973.87,1453.17,973.87Z"/><path class="cls-2" d="M1151.33,193.4a22.44,22.44,0,0,1-4.85-4.83,317,317,0,0,0-30-35.73c-7-7.22-14.82-13.61-22.15-20.51a169.45,169.45,0,0,0-20.86-17.28c-8-5.41-15.56-11.42-23.46-16.93a283.13,283.13,0,0,0-35.87-21.07c-11.07-5.51-21.9-11.56-33.39-16.14-10.34-4.13-21.26-6.86-31.43-11.32-9.76-4.28-20.1-6.38-30.2-9A340.84,340.84,0,0,0,880,33c-11.31-1.57-22.54-3.59-34-4.24-15.44-.88-30.84-1.79-46.35-1-15.95.84-31.85,1.88-47.63,4.34-19.15,3-38.24,6.08-56.75,12.34-5.5,1.86-11.47,3-17,5-12.84,4.67-25.68,9.27-38.24,14.84-14.93,6.62-29.22,14.21-43.53,21.9-9.63,5.18-18.1,12.07-27.13,18.13-7.16,4.8-14.6,9.25-20.93,15.12-6.79,6.29-13.66,12.59-20.72,18.45-10.74,8.93-19.83,19.26-29.3,29.32-7.77,8.25-14.31,17.47-21.32,26.33-.78,1-1.17,2.38-2.78,2.43-.15-.43-.44-.88-.33-1,5.88-7.26,8.28-16.77,15-23.44,3.93-3.93,5.84-9.34,9.75-13.09,4.79-4.6,6.33-11.54,12.27-15.37,4.21-2.71,6.22-7.81,9.49-11.65,8.61-10.09,19.33-18,27.71-28.4a40.91,40.91,0,0,1,12.24-10.17,37.31,37.31,0,0,0,9.7-7.54c6.47-7,15.19-10.81,22.31-16.93,6-5.16,13.66-8.43,20.65-12.41,8.65-4.91,17.52-9.44,26-14.6C650,34.71,662,30.56,673.54,25.52c8-3.49,16.92-4.79,25.06-8,15.58-6.2,32.19-8.14,48.3-12,12-2.88,24.63-3.37,37-4.26C796.53.33,809.17-.25,821.84.11,864.28,1.32,905.57,8.62,945.57,23a396.59,396.59,0,0,1,114.64,64.44c20.93,16.82,39.71,35.85,57.18,56.27,11.6,13.56,20.92,28.73,31.75,42.83,1.36,1.77,1.92,4.17,2.85,6.28C1151.78,193,1151.56,193.22,1151.33,193.4Z"/><path class="cls-1" d="M752.69,219.14c12.22-7.14,23.51-13.78,34.84-20.37,9.05-5.27,18.18-10.42,27.18-15.8,2.09-1.25,3.66-1.48,5.86-.2q29.5,17.26,59.16,34.29c3.21,1.85,2.28,2.72-.25,4.18q-29.19,16.81-58.3,33.79c-1.68,1-3.18,2.12-5.45.79C795.07,243.72,774.35,231.73,752.69,219.14Z"/><path class="cls-2" d="M1276.62,1164.36c.53,3.58,1,6.48,1.4,9.5,2.4-.44,3.7-2.07,5.15-3.32a22.52,22.52,0,0,1,26.71-2.31,2.84,2.84,0,0,1,1.33,1.37c1.78,6.08,4.9,4.43,8.32,1.53,5.27-4.45,11.07-6.82,18.25-6.2,6.63.58,13,6,13.94,12.73,1.94,13.93.57,27.93,1,41.88.14,4.84-.64,10.08,6.36,10.9.41,0,1.12,1.17,1,1.34-.54.8-1.44,2.13-2,2-7.5-1.31-15,.77-22.52-.38-.71-.11-1.82-.63-1.91-1.11a2,2,0,0,1,1.57-2.19c4.67-1.48,5.44-5.05,5.37-9.42-.17-11.16,0-22.33-.07-33.49a20.39,20.39,0,0,0-2.81-10.89c-2.63-4.41-6.18-5.77-10.85-5.16a11.51,11.51,0,0,0-9.72,7.6,16.76,16.76,0,0,0-1.28,5.81c-.13,13.5,0,27-.17,40.49-.07,5.15,4.42,4.56,7.17,6.18-2,2.86-2.23,3.11-4.33,2.65a40.71,40.71,0,0,0-17.68,0c-1.59.35-3.06.18-3.78-1.52-.83-2,.8-2,2-2.54a7.7,7.7,0,0,0,4.52-7.22c0-13,.18-26-.08-39-.12-6.13-4.86-11.64-8.58-12.4-5.45-1.13-11.42,1.21-13.9,5.66a20.13,20.13,0,0,0-2.16,9.64c-.15,12.5-.1,25,0,37.5,0,3.17.54,6.14,4.82,6,1,0,2,.24,1.92,1.65a2.11,2.11,0,0,1-2,1.87c-7.87-1.84-16,1.18-23.79-1.33-.12,0-.17-.27-.56-1,8.73-1.73,7.49-8.52,7.48-14.75,0-11.16,0-22.33,0-33.49,0-3.35.06-6.39-4.22-7.88-3.28-1.15-.51-3.3.7-3.68C1268,1170,1271.9,1166.93,1276.62,1164.36Z"/><path class="cls-2" d="M866.18,1233.14h-23.7c-.69,0-1.38-.23-1.49-1-.14-1,.58-1.53,1.37-1.81,3.39-1.17,4.31-3.76,4.3-7,0-12.83.14-25.66-.07-38.48-.17-10.78-6.39-16-15.44-13.21-6.74,2.06-9,7.7-9.15,13.78-.41,13.31-.16,26.64-.13,40,0,2.61,1,4.5,4,4.75,1.25.11,3,0,2.65,2.05-.34,1.85-2,2.12-3.53,1.91-6.11-.79-12.2-1.22-18.33,0a3.59,3.59,0,0,1-4-2.31c-.36-1.35,1.36-3.16,2.54-3.22,4.9-.27,4.38-4.28,4.38-6.86,0-14.1.94-28.24-.76-42.31-.54-4.44-3.91-7.59-8.74-8.18-5.86-.71-11.42,2.28-13.35,7.35a27.72,27.72,0,0,0-1.79,9.74c-.06,11.49,0,23,0,34.48,0,3.56.38,6.73,4.78,7.5.93.16,2,.76,1.71,2-.23,1-1.32.86-2.08.86-7.38,0-14.78.08-22.16-.22-1.72-.07-1.87-2.07-.16-2.6,6.3-1.93,5.92-6.79,5.85-11.86-.15-12.33-.07-24.66,0-37,0-2.94.21-5.55-4.06-5.81-2.42-.15-2.47-2.19-.4-3.29a127.92,127.92,0,0,0,12.1-6.87c2-1.34,3.15,0,3.4,2.49.41,3.88,1.47,5.17,5.55,2.21,6.33-4.6,13.54-6.53,21.66-4.36a9.94,9.94,0,0,1,6.37,4.94c2.16,3.6,4.39,3.94,7.54,1.21,4.18-3.61,8.65-6.37,14.49-7.11,8.48-1.09,16.29,3.57,18.21,12a42.19,42.19,0,0,1,1.2,9.87c-.12,11.32,0,22.65,0,34C858.8,1226.74,858.79,1226.74,866.18,1233.14Z"/><path class="cls-2" d="M1214.76,1177.91q0,21.22,0,42.46a18,18,0,0,0,.29,4c.25,1.08.61,2.39,2,2.61s2.06-.83,2.65-1.87a3.35,3.35,0,0,1,.47-.88c1.32-1.23,1.22-5,3.63-3.65,2.25,1.27,1.46,4.72.09,6.71-3.84,5.58-10.05,7.3-16.2,8.72-2.38.56-2.69-1.79-3.28-3.55-1-3-2.52-4.64-5.76-1.94-10.91,9.08-25.61,5.78-31.57-9.87-4.59-12.06-4.36-24.35-.11-36.43a30.83,30.83,0,0,1,10.5-14.89c6.37-4.72,13.42-5.84,20.67-2.38,4.06,1.94,4.79.67,4.65-3.21-.21-5.48-.1-11,0-16.48,0-2.83-.16-5.43-3.7-6-.77-.13-1.81,0-2-1.06-.23-1.3.92-1.72,1.79-2,4.31-1.45,8-3.95,11.75-6.47,3-2,4.31-1.7,4.19,2.32-.2,7.32,0,14.65-.06,22v22Zm-12,22.26c-.12-7.78.46-15-1.1-22-.9-4-2.38-7.81-6.92-8.89-5-1.18-8.79,1-11.52,5a20.91,20.91,0,0,0-2.54,5.36,62.89,62.89,0,0,0-.45,36.26,16.82,16.82,0,0,0,6.3,9.32c6.24,4.53,13.55,1.58,15.28-5.87C1203.34,1212.79,1202.39,1206.14,1202.77,1200.17Z"/><path class="cls-2" d="M342.22,1231.61a13.64,13.64,0,0,1-9.65,1.66c-4.74-.64-9.63-.15-14.46-.17-.8,0-1.77.05-2.05-1a1.44,1.44,0,0,1,1.25-1.82c4.66-1,4.57-4.65,4.57-8.22q0-37.71,0-75.43c0-2.64-.1-5.1-3.53-5.52-.88-.11-1.65-.52-1.53-1.56s1-1.22,1.76-1.55a52.11,52.11,0,0,0,11.34-6.21c1.09-.81,2.41-2.25,4-1.29,1.3.8.75,2.44.75,3.71,0,11.66,0,23.31.05,35,0,1.21-.73,2.93.89,3.52,1.19.43,2-.91,2.87-1.65,5.26-4.6,11.19-6.84,18.31-6.1,6.43.67,11.19,4.23,13,10.58a46.19,46.19,0,0,1,1.88,12.76c-.05,11.49.08,23,0,34.47-.05,4,.6,7,5.33,7.29,1.24.08,2.43.57,2.38,2s-1.52,1-2.34,1.33a5.14,5.14,0,0,1-2.84.63c-5.91-1.34-11.77-.27-17.65,0-1.38.07-2.81,0-3.31-1.53s.86-2,1.86-2.51c3.24-1.8,3.72-5,3.74-8.14.1-13.16.11-26.31-.06-39.47-.1-7.24-4.37-11.38-11-11.31-7.49.08-11.26,4.6-12.17,11.88-1.46,11.78-.44,23.53-.76,35.28C334.58,1223.8,332.61,1230.56,342.22,1231.61Z"/><path class="cls-2" d="M28.51,1233.18c-8.33,0-16.66,0-25,0-1.2,0-3.06.66-3.41-1.05a2.8,2.8,0,0,1,2.12-3c6.74-1,6.26-6.69,6.32-11,.32-22,.18-44,.12-66,0-3.82-1.47-6.72-5.81-7.37-1.19-.18-3-.54-2.87-2.21.12-2,2-1.41,3.17-1.42,16.49-.07,33-.06,49.47-.13,2,0,3.2.45,3.18,2.71,0,5.66,0,11.32,0,17,0,1,.07,2.14-1.26,2.36a2.29,2.29,0,0,1-2.38-1.5c-1.21-2.54-2.15-5.22-3.45-7.72-3.69-7.09-14.48-11-22-8.32-4.25,1.51-3.29,5.26-3.4,8-.3,7.63.2,15.29.21,22.94,0,2.73.94,3.75,3.75,3.9,11,.58,12.58-.21,17.07-9.53.51-1.07.9-2.43,2.29-2.27,1.62.18,1.23,1.73,1.23,2.81,0,8,0,16,0,24,0,1.21.46,3.06-1.38,3.24-1.52.16-2-1.46-2.6-2.66-.27-.6-.38-1.28-.59-1.9-2.79-8.11-9.69-11.53-17.77-8.92-2,.63-1.9,2.1-1.9,3.57,0,10-.13,19.92.18,29.88.22,7.4,3.7,10.42,11,10.49,9.71.1,15.16-4.33,18-14,.85-2.85.14-8.25,4.32-7.62,3.27.49,1.18,5.42,1.52,8.35.5,4.43-.3,8.91.52,13.4.6,3.27-1.89,4.15-4.71,4.15h-26Z"/><path class="cls-2" d="M696.77,1230.75c11.25-1.88,9-10.32,9-17.67q0-29.73,0-59.47c0-4.57-.4-8.85-6.64-8.79a2,2,0,0,1-2.16-2.22c.12-1.69,1.64-1.43,2.71-1.44,16.65-.07,33.31-.08,50-.16,2.3,0,3.31.76,3.26,3.17-.11,5.33,0,10.66-.06,16,0,1.11.27,2.58-1.31,2.82-1.31.21-2.11-.81-2.6-1.93s-.92-2.5-1.47-3.71c-4.66-10.27-10.1-13.35-21.36-12.23-3.76.37-5.62,2.05-5.54,6.09q.25,12.48,0,25c-.07,3,1.1,4.26,3.85,4.59,9.08,1.12,13.48-1.35,17.16-9.73.47-1.07.68-2.64,2.05-2.44,1.81.26,1.3,2.05,1.31,3.29q.08,11.23,0,22.48c0,1.59.44,3.91-1.64,4.21s-2.17-2-2.59-3.52c-2.13-7.79-9.72-12-17.66-10-2.15.56-2.41,2-2.4,3.77,0,10-.18,20,.22,30,.15,3.69,1.19,7.74,5.5,9.26,5.69,2,10.94,1.09,16.09-2.12,5.88-3.65,6.93-9.79,8.89-15.53.51-1.48.24-3.65,2.78-3.25s1.61,2.57,1.63,4c.11,6-.06,12,.1,18,.07,3-.91,4.21-4,4.19-17-.15-34-.17-51-.23C699.53,1233.16,698.15,1233.26,696.77,1230.75Z"/><path class="cls-2" d="M890.05,1173.83c2.18-1.53,4.28-2.8,6.17-4.33,8.33-6.79,17.43-6.06,24.29,2,12,14.17,11.36,41.8-1.07,55.56-6.61,7.31-14.46,10-23.77,6.8-4.43-1.54-5.22-.16-5.1,3.83.18,6.16.15,12.33,0,18.5-.07,3.83,1.15,6.15,5.41,5.87a7.39,7.39,0,0,1,2,.13c1.31.28,2.88.63,2.54,2.39s-2.08,1.42-3.31,1.21c-6.46-1.08-13-.48-19.44-.51-2,0-4,.41-5.94.58-1.25.1-2.51-.25-2.67-1.63s1.05-1.81,2.26-2.11c6.87-1.69,7.2-2.1,7.2-9.19,0-23.16-.1-46.32,0-69.48,0-3.62-.62-6.15-4.54-7-3.27-.7-3-2.1-.55-3.72,3.62-2.43,8.11-3.39,11-7.19.7-.91,5.15-2.46,4.42,2.61C888.75,1169.87,889.62,1171.71,890.05,1173.83Zm25.57,27.86a54.21,54.21,0,0,0-3.93-21c-2.05-5-7.55-8.62-12-8.09-4.92.59-8.3,3.36-8.58,9.37-.64,13.41-1.5,26.88.66,40.25.74,4.56,2.86,8.27,8,8.83,5.35.59,8.58-2.35,11-6.81C915,1216.81,915.05,1208.66,915.62,1201.69Z"/><path class="cls-2" d="M158,1266.07a23,23,0,0,1-13.33-3.08c-11.77-6.44-11.43-17.26-2.43-25.44,4.91-4.47,5.08-4.27,1.13-9.45-6-7.85-5.73-9.3,2.64-14.5,5.47-3.4,5.77-3.77.63-8-11.61-9.51-9.51-28.67,0-36.22,6.27-5,13-6.09,20-3.58,6.06,2.16,12,3.8,18.45,3.28,1.85-.15,3.62-.22,3.68,2.66s-1.55,3.41-3.77,3.13c-4.57-.57-5.05.78-3.56,5.08,5.15,14.88-4.3,28.57-21.65,32-2.76.55-5.6.76-8,2.41-3,2-2.77,4,.24,5.61a20.83,20.83,0,0,0,9.66,2,62.34,62.34,0,0,1,13.3,1.68c15.31,3.48,16.33,18.53,11.3,28.33C180.36,1263.56,169.62,1265.83,158,1266.07Zm1.3-32.92c-8-.13-13.47,5.11-13.58,13.11-.14,9.19,6.57,15.51,16.72,15.76,9.51.23,17.1-6.3,17.25-14.84S172.36,1233.37,159.31,1233.15Zm-7.71-45.34a35.06,35.06,0,0,0,2.13,14.75c1.29,3.16,3.54,5.24,7,5.48,3.69.25,5.79-2,7.1-5.14a36.25,36.25,0,0,0,2.47-18c-.44-4.22-.51-8.67-3-12.44-1.7-2.56-3.63-4.78-7.17-4.44s-5.52,2.54-6.74,5.71C151.7,1178.15,151.48,1182.76,151.6,1187.81Z"/><path class="cls-2" d="M1441.57,1202.94c0,8.16,0,14.65,0,21.15,0,2.68.15,5.13,3.83,5a2.13,2.13,0,0,1,2.29,2.62c-.17,1.5-1.63,1.35-2.79,1.4-6.27.27-12.57-.72-18.84.74-1.19.28-3.61-.13-4-2-.48-2.13,1.6-1.52,2.73-1.86,2.48-.74,3.36-3,3.49-5,1-15.36.56-30.74.53-46.11,0-1.48-.43-2.66-2-3.06-5.63-1.5-1.87-3.63-.1-4.89a48,48,0,0,1,9.4-5.4c4.55-1.9,3.58,2.25,4,4.41.21,1-1,2.33.59,3,1.26.53,2-.49,3-1.22,4.12-3.09,8.49-6,13.72-6.54,13.36-1.23,19.56,4,20.23,17.91.58,11.8,0,23.65.32,35.46.13,4.87-1.82,11.27,6.71,11.91,1.83.13.84,1.92-.39,2.83-1.81,1.34-3.94,1.1-5.79.75-4.76-.89-9.41-1.31-14.2,0-1.3.36-3.64,1-4.33-1.1-.75-2.33,1.45-2.5,3-3.09a3.93,3.93,0,0,0,2.72-3.84c-.35-15.26,1.41-30.58-1-45.77-1-6.6-3.78-8.89-9.19-9.11-6.45-.25-11,2.53-12.74,8.18C1440.24,1187.6,1442.22,1196.17,1441.57,1202.94Z"/><path class="cls-2" d="M302.81,1202.61c0,6.49-.15,13,.06,19.48.12,3.87.46,8,5.94,8.07a1.58,1.58,0,0,1,1.73,1.45c.09,1-.82,1.16-1.54,1.59-3.36,2-6.75.11-10.11.18-3.95.09-7.91-.11-11.86-.22-.79,0-1.83.06-2-1-.1-.52.26-1.59.57-1.66,6.6-1.44,4.73-7.48,4.84-11,.4-13.08,1.08-26.23-.57-39.3-.51-4.12-4.71-8.46-8.84-9-5.53-.76-11.52,2.48-13.32,7.4a29.87,29.87,0,0,0-1.81,10.23c0,11.16.06,22.32,0,33.47,0,4.17.37,7.81,5.76,8a1.81,1.81,0,0,1,1.76,1.52c.17,1.49-1.36,1-2.06,1.51-2.35,1.67-4.46-.41-6.73-.27-4.28.26-8.6-.3-12.86.94-1.22.36-3.17.76-3.85-1.2s.81-2.44,2.37-2.88c3-.84,3.46-3.42,3.47-6,.06-14.65,0-29.31.06-44,0-2.34-.85-3.77-3.11-4.43-2.64-.77-2.27-2.07-.34-3.25,3.68-2.26,7.43-4.41,11.18-6.56,2.48-1.41,3.31-.3,3.2,2.18q-.06,1.5,0,3c.06.95-.33,2.14.73,2.71s1.74-.61,2.46-1.16c3.85-2.9,7.55-6.13,12.37-7.27,13-3.07,21.86,4,22.41,17.94.25,6.48,0,13,0,19.48Z"/><path class="cls-2" d="M1113.78,1204c0,7.5.12,13.67,0,19.82-.09,3.26.78,5.52,4.26,6.2,1.36.27,2.83.82,2.31,2.54-.45,1.5-2,1.72-3.37,1.39a37.83,37.83,0,0,0-17.67,0c-1.15.27-2.8.65-3.45-1s.52-2.44,1.92-2.82c3.84-1.07,3.81-4.44,3.84-7.27.16-14.15,0-28.3.11-42.45,0-2.74-1.35-3.27-3.48-3.77-1.2-.28-2.87-.68-3-2.22s1.65-1.38,2.55-1.94c3.38-2.1,7-3.87,10.31-6.07s4.73-.48,4.55,2.53c-.31,5.22.7,5.54,4.66,2.24,5.6-4.66,11.94-7.48,19.69-6.17,5.88,1,9.73,4.08,11.7,9.5a34.58,34.58,0,0,1,2,11.72c0,12.73,0,25.46.07,38.19,0,3,.73,5.71,4.66,5.7,1.37,0,3,.27,2.7,2.06-.25,1.53-1.91.94-3,1-6.43.36-12.93-1-19.32.88-1.18.33-2.85.38-3.15-1.49-.22-1.34.48-2.17,1.88-2.43,3.41-.63,3.94-3.31,4-6,.07-13.32.21-26.64,0-40-.12-6.74-5-12.6-9.86-12.95-8-.58-12.56,3-14.19,11.31C1112.94,1190.06,1114.24,1197.74,1113.78,1204Z"/><path class="cls-2" d="M69.44,1174.54c4.53-4.45,10-5.92,14.43-9,1.31-.94,2.61-.35,2.73,1.51.09,1.33,0,2.67.11,4,.06.93-.42,2.18.78,2.62s1.82-.58,2.54-1.21c5.84-5.09,12.18-8.63,20.36-7.43,5.93.86,10.33,3.53,12.27,9.42a41.21,41.21,0,0,1,2.09,13.24c0,11.65,0,23.31,0,35,0,3.9.82,7,5.37,7.52,1,.13,2.23.63,2.18,1.69-.08,1.62-1.67,1.32-2.74,1.35-6.78.18-13.59-.81-20.32.91a2.58,2.58,0,0,1-3.25-1.66c-.65-1.93,1.1-2.07,2.27-2.52,3.2-1.22,4.48-3.42,4.44-6.92-.14-12.66.06-25.32-.1-38-.13-10.59-5.2-15.31-14.27-13.71-6.12,1.08-10.07,5.76-10.32,14-.4,13.15-.14,26.31-.12,39.47,0,3.1,1.46,5,4.7,5.34,1.34.13,2.36.7,1.9,2.21a2.33,2.33,0,0,1-2.72,1.67,128,128,0,0,0-19-.83c-1.09,0-2.57.38-3-1.13s1-1.77,2.13-2.14c3.36-1.16,3.69-4.14,3.71-6.94.1-14.15-.09-28.31.12-42.46C75.84,1176.32,73.1,1175.67,69.44,1174.54Z"/><path class="cls-2" d="M1307.68,1071.81c-.06-3.11-.51-6.2,0-9.33,1.32-7.3,5.07-12.15,12.35-14.49,14.67-4.71,25.65,3.65,27.39,17.13.85,6.55,1,13.18-1.36,19.67-4.24,11.9-18.4,18-29.34,11.8-6.27-3.57-8.4-10.32-9-17.3C1307.49,1076.81,1307.68,1074.3,1307.68,1071.81Z"/><path class="cls-2" d="M1628.86,1071.38c.11,7.14-1,12.62-3.86,18-6,11.41-22,10.69-29.75,5.38-1.61-1.1-2.67-3.35-3.45-5.29-3.78-9.4-4.84-19-2.11-29,2-7.2,5.94-11.52,13.48-13.16,12.13-2.65,22.24,3.64,24.84,15.93A40.17,40.17,0,0,1,1628.86,1071.38Z"/><path class="cls-2" d="M428.74,1197.39c0,6.66,0,13.32,0,20,0,2.66-.06,5.7,2.37,7.22,2.75,1.72,4.52-.64,6.18-2.6a2,2,0,0,1,1.7-.62c1,.29.74,1.34.76,2.12.08,4.84-5.69,11-11.42,12.28-4.12.91-8.6-2.49-10.68-8-1.7-4.51-4.14-2-5.86-.23-3.49,3.68-7,7-12.35,7.74-7.94,1.13-12.38-2.53-12.62-10.08-.32-10,5.71-16.64,12.9-22.46,2.72-2.2,5.57-4.22,8.23-6.48s6.62-3.55,7.35-7.15a47.28,47.28,0,0,0,.08-16.9c-.6-3.68-3.78-4.91-7.37-3.81-4.55,1.39-7.12,4.73-8.26,9.22-.82,3.22-1.43,6.53-3.17,9.4s-4.11,4.83-7.43,3.43-2.77-4.57-2-7.38c3.77-13.45,22.74-22.63,35.67-17.34,5.11,2.1,5.66,6.65,5.81,11.16.22,6.82.06,13.65.06,20.48Zm-12.2,7.67a63.41,63.41,0,0,0-.05-6.47c-.21-2-1.52-3.22-3.4-1.71-6.67,5.34-13.06,10.94-13.43,20.43-.15,3.71,1.27,6.67,5,7.59a7.17,7.17,0,0,0,8.49-3.56C416.22,1216.28,416.63,1210.72,416.54,1205.06Z"/><path class="cls-2" d="M563.81,1196.08c0,7.94,0,14.6,0,21.26,0,2.67-.05,5.72,2.27,7.28,2.77,1.85,4.44-.86,6.2-2.58a2.29,2.29,0,0,1,1.72-.65c1,.23.79,1.27.85,2.06.29,4.52-5,10.36-11,12.07-3.17.91-7.6-1.85-9.59-6-3-6.23-3.68-6.37-8.17-1.15-4.08,4.74-9,8.39-15.34,7-7.43-1.61-10.48-11-7.07-19.26,3.28-8,10.51-12.25,16.5-17.68a1.92,1.92,0,0,1,.42-.28c11.76-5.12,11-15.27,10-25.37-.38-4-3.82-5.73-7.82-4.26-4.41,1.63-6.87,5-8,9.49-.7,2.73-1.17,5.6-2.39,8.1-1.54,3.13-4.24,5.55-8,4.12s-2.86-4.73-1.93-7.68c4.18-13.28,22.79-22,35.53-16.65a8.09,8.09,0,0,1,5.31,7C564.38,1181.09,563.3,1189.23,563.81,1196.08Zm-12.19,8.8c0-1.85.15-4,0-6.15-.18-1.94-1.33-3.4-3.31-1.92-6.47,4.84-12,10.53-13.44,18.89-.79,4.71,1.72,8.67,5.41,9.29,4.65.79,7.69-1.57,9.28-5.7A31,31,0,0,0,551.62,1204.88Z"/><path class="cls-2" d="M1526.55,1201c.3-10.57,1.89-20.46,9.59-28.87,10.32-11.26,25.07-9.38,34-.19,10.55,10.79,11.13,24,8.9,37.64-2.08,12.77-9.58,21.28-21.8,25.79a13.18,13.18,0,0,1-11.82-1.33C1532.91,1226.23,1525.94,1217.13,1526.55,1201Zm40.25-.37c.2-8.37-.83-16.53-4.08-24.33-1.72-4.12-4.44-7.38-8.93-7.73-4.65-.36-7.73,2.64-9.33,6.86-6.35,16.69-6.19,33.33.84,49.77,1.59,3.72,4.47,6.14,8.89,6s6.48-3.11,8.12-6.42C1566.08,1217.19,1567,1209,1566.8,1200.61Z"/><path class="cls-2" d="M1014.31,1195.31c-4,0-8,.23-12-.07-3.47-.25-5.33,1.63-5.39,4.43-.18,8.86.18,17.69,7.19,24.52,5,4.89,9.26,5.15,15.58,1.8,3.6-1.9,7.27-3.23,8.36-7.73a2.27,2.27,0,0,1,2.76-1.59c1.49.41,1,1.93.87,3-.43,6.08-9.42,14-17,15.52-11.13,2.26-19.58-1.28-26.31-12.32-10.05-16.5-5.65-42.31,7.31-54.15a18.38,18.38,0,0,1,12.67-4.4c19.48.24,22.24,12,23.31,27.49.19,2.79-1.64,3.38-3.83,3.41-4.5.06-9,0-13.49,0Zm-8.9-3.18a36.11,36.11,0,0,0,9.37-.93,5.78,5.78,0,0,0,4.74-5.12c.65-4.64.58-9.29-1.7-13.6a8.32,8.32,0,0,0-14-1.49,32.36,32.36,0,0,0-6.88,16.27c-.43,2.87.65,4.92,4,4.88C1002.42,1192.12,1003.91,1192.13,1005.41,1192.13Z"/><path class="cls-2" d="M640.9,1195.62c-4.65,0-9.3-.08-13.95,0-3,.08-4.27,1.76-4.24,4.88,0,7.42,1,14.55,5.27,20.88,7.38,10.9,20.35,7,25.4-.62.45-.69.82-1.45,1.33-2.1s1.23-1.81,2.39-1.24.71,1.72.74,2.68a8.65,8.65,0,0,1-1.92,5c-9.51,14.12-31.85,14.89-40.91-.8-5.34-9.27-6.73-18.93-5.63-29.68a38.79,38.79,0,0,1,9.75-22.21c6.67-7.66,15.52-10.29,25.3-6.8s12.41,11.89,13.22,21c.74,8.35.22,8.63-8.26,8.62H640.9Zm-8.21-3.63c1.83,0,3.68.14,5.49,0,5.57-.52,8.51-3.57,8.33-9.18a22.54,22.54,0,0,0-2.33-10.1c-3-5.52-8.67-6.55-13.26-2.27-3.13,2.92-4.79,6.74-6.13,10.7C621.61,1190.47,622.88,1192.22,632.69,1192Z"/><path class="cls-2" d="M221.23,1195.91c-4.16,0-8.32,0-12.48,0-2.65,0-4,1.06-4,3.84.05,7.73.88,15.2,5.5,21.83a14.77,14.77,0,0,0,24.75-.19c.64-1,1.1-2,1.7-3s1.17-2.25,2.64-1.54c1.29.62,1.17,1.85.84,3-2.27,8.23-8.35,12.69-15.93,15-12.37,3.81-24.44-2.72-29.71-16.71-5.64-15-4.62-29.78,4.51-43.27,6.89-10.2,20.11-13.42,29.89-8,7.8,4.36,13,16.84,10.7,25.6-.77,3-3.11,3.24-5.43,3.31-4.32.13-8.65,0-13,0Zm-6.74-4a56.58,56.58,0,0,0,6,0c4.77-.48,7.71-3.1,7.82-8,.08-4-.2-7.94-2.28-11.52-3.07-5.28-8.34-6.1-13-2.07-3.42,3-5,7-6.29,11.1C203.77,1190.8,204.8,1192.26,214.49,1191.93Z"/><path class="cls-2" d="M1052.56,1203.39c.54,6.73,1.4,13.36,5.89,19,6.64,8.41,18.24,7.61,24.84-1.78.38-.54.62-1.18,1-1.76.57-1,1.19-2.27,2.61-1.68s.94,2,.82,3.08c-.45,4.24-8.13,12.89-12.53,13.59-2.65.42-4.73,2-7.52,2.25-15.68,1.49-25.43-12.85-27.62-23.75-2.74-13.63-1.27-27,7.61-38.71,5.74-7.6,20.06-11.78,28.71-7.72,5.47,2.57,7.78,8,9.88,12.91a26,26,0,0,1,1.5,12.07c-.31,3.63-1.29,5.12-5.53,4.82-8.45-.61-17-.47-25.44-.32C1051,1195.52,1053.16,1200.22,1052.56,1203.39Zm10.63-11.3c1.74-.14,4.89.2,8-.93,2.38-.87,4.16-2.28,4.47-4.8.55-4.46.58-8.94-1.31-13.17-2.72-6.09-8.9-7.27-13.75-2.59s-6.47,10.68-7.64,16.9c-.51,2.73,1.08,4.41,3.92,4.57C1058.49,1192.17,1060.15,1192.09,1063.19,1192.09Z"/><path class="cls-2" d="M1398.28,1195.31c-4.16,0-8.32,0-12.48,0s-6.37,1.69-6.12,6.37a50.53,50.53,0,0,0,4.55,18.37c2,4.43,5.82,8.12,10.69,7.76,5.86-.45,12.43-.89,15.88-7.32.73-1.36,1.3-3.87,3.23-3s1,3.49.36,4.91a22.07,22.07,0,0,1-15.34,12.47c-15.45,3.54-29.22-7.11-31.5-22.93-1.48-10.28-1.09-20.24,2.23-30,3.15-9.2,14.06-18.17,23.43-17.53,13.31.92,20.57,8.12,21.48,20.66.74,10.17.74,10.17-9.42,10.18Zm-9.09-3.16c15.63.91,16.55-6.79,12.61-18.28-2.49-7.26-9.77-8.33-14.79-2.44a28.85,28.85,0,0,0-5.37,10.57C1379,1190.75,1380,1192.2,1389.19,1192.15Z"/><path class="cls-2" d="M1625.77,1174.06c-.6,2.79,1.59,6.68-1.93,7.72-4.3,1.28-3.41-3.32-4.54-5.53-4.66-9.12-13-11.1-18.9-4.45-2.47,2.8-2.29,8.45,0,11.36,3.29,4.21,7.88,6.49,12.38,8.93a43.87,43.87,0,0,1,12.35,9.87c5,5.69,4.85,16.43,1.07,23.16-6.61,11.75-26.5,12.7-34.77,8.78-5.22-2.47-3.22-8.17-3.56-12.64-.09-1.22,1-2.31.65-3.8-.45-2,0-4.7,1.89-5,2.2-.3,4.39,2,4.86,4.06a25.26,25.26,0,0,0,7.47,12.91,8.73,8.73,0,0,0,14.26-3.24,16.8,16.8,0,0,0-9-22.11,50.63,50.63,0,0,1-14.91-9.68c-7.89-7.57-5.56-16.81,2.15-25.32,4.66-5.12,22.14-6,28.31-2.9C1627.28,1168.07,1625.05,1171.58,1625.77,1174.06Z"/><path class="cls-2" d="M953.59,1177c4-2.59,5.74-5.93,8-8.7,2.83-3.44,10.39-4.7,13.68-2,3.83,3.14,4.61,10.79,1.47,14.42-3.55,4.09-8.41,3.13-10.41-1.92-.66-1.67-.08-4.51-3-4.5-2.42,0-3.81,2-4.91,3.82-2.91,4.86-3.4,10.42-3.57,15.85-.31,10,0,20-.14,30,0,3.31,1,5.42,4.34,6.19,1.24.29,2.87.69,2.08,2.58-.62,1.5-2.11,1.5-3.45,1.2a41.12,41.12,0,0,0-18.17,0c-1.42.32-3,.45-3.84-1.37-1.09-2.32,1.14-3.55,2.13-3.74,5.43-1.07,4.84-5,4.84-8.89,0-12.65,0-25.29,0-37.94,0-3-.08-5.57-4.08-6-2.77-.32-2.27-2.24-.54-3.31,4.22-2.59,8.56-5,13-7.23,2.14-1.09,2.52.59,2.53,2.27C953.6,1170.54,953.59,1173.35,953.59,1177Z"/><path class="cls-2" d="M1497.61,1200c0-7.82-.07-15.65,0-23.47,0-2.83-.14-5-3.89-4.53a2.34,2.34,0,0,1-2.8-1.55c-.33-1.17.58-1.83,1.3-2.49,5.56-5.11,10.3-10.8,13.11-17.93.34-.88.76-1.94,2.06-1.81s1.16,1.34,1.47,2.23c1.29,3.74.64,7.6.57,11.38-.07,3.23,1,4.63,4.23,4.28a26.58,26.58,0,0,1,4,0,2.72,2.72,0,0,1,2.91,2.77c.1,2.07-1.16,2.82-3.09,3.11-8,1.16-8,1.2-8,9.17q0,19.47.13,38.94c0,2.38,0,4.9,2.86,5.68,2.6.69,3.79-1.48,5.22-3.07,1-1.1,1.37-3.66,3.61-2.23s.05,2.89-.55,4.15c-4,8.29-9.21,11.59-15.59,10-4.71-1.19-7.22-4.42-7.32-10.17-.16-8.14,0-16.3,0-24.45Z"/><path class="cls-2" d="M460.21,1176.84c2.8-3.1,5.19-6,7.9-8.67,4.09-3.93,9.13-4.69,12.68-2.24,2.94,2,4.33,7.84,3,12.3-1,3.24-3.05,5.11-6.55,4.87s-5.73-1.58-5.53-5.52c.09-1.63-.53-3.2-2.33-3.27a4.64,4.64,0,0,0-4.43,2.76c-1.84,4-4.05,8-4.08,12.65-.08,11.65-.07,23.3-.14,35,0,2.85.87,4.88,4,5.35,1.26.19,2.44.7,2,2.2a2.45,2.45,0,0,1-3.16,1.7,36.82,36.82,0,0,0-17.15.06c-2.08.48-3.63-1-5.29-1.56a3.56,3.56,0,0,1,.05-.82c8.44-2.33,7.47-9.17,7.46-15.56,0-11,0-22,0-33,0-3.34.24-6.76-4.27-7.78-2.12-.48-1.65-1.87-.23-2.74q6-3.64,12.05-7c1.89-1,2.7-.11,2.78,1.9C459,1170.41,458.46,1173.46,460.21,1176.84Z"/><path class="cls-2" d="M507.59,1196.77c0,9.14.05,18.29,0,27.43,0,2.9.31,5.34,3.8,5.92,1.15.19,2.53.59,2.13,2.12s-1.64,2-3.16,1.64a45.77,45.77,0,0,0-18.65,0A3.09,3.09,0,0,1,488,1232c-.58-2,1.49-1.73,2.63-2,2.89-.74,4.08-2.75,4.09-5.51.06-14.63,0-29.26.08-43.89,0-2.55-1.29-3.53-3.68-3.64a2.36,2.36,0,0,1-.28-4.69c5.14-.3,8.82-3.68,12.93-6,2.94-1.67,3.79-1.15,3.77,2.08-.05,9.48,0,19,0,28.43Z"/><path class="cls-2" d="M1227,1232c8.69-2,7.74-8.5,7.73-14.52,0-11.48,0-23,0-34.46,0-3.18.15-6.29-4.35-7.11-2.54-.46-1.49-2.25.16-2.9,4.82-1.9,9.18-4.65,13.73-7,4-2.08,2.5,2,2.51,3.22.16,12,.08,24,.07,35.95,0,6.16.07,12.32,0,18.48,0,3.17.79,5.44,4.26,6.16,1,.2,2.54,0,2.6,1.74a2.23,2.23,0,0,1-2.26,2.2C1243.44,1232.14,1235.25,1234.15,1227,1232Z"/><path class="cls-2" d="M1247.7,1147.06c0,5.88-2.15,9.13-6.13,9-3.62-.07-5.73-3.1-5.8-8.34-.08-5.43,2.11-8.67,5.93-8.76S1247.66,1141.89,1247.7,1147.06Z"/><path class="cls-2" d="M507.87,1147.74c-.17,2.44.26,5.27-2.2,7.12a5.34,5.34,0,0,1-7.26-.2c-2.72-2.37-2.85-11.1-.22-13.91a5.14,5.14,0,0,1,7.16-.78C508.07,1141.79,507.79,1144.79,507.87,1147.74Z"/><path class="cls-2" d="M472.71,198.08l-.17,1.38-.62-.3.8-1.07Z"/><path class="cls-2" d="M1152,192.84c.54.45,1.08,1.2.46,1.6-.81.52-.85-.55-1.12-1C1151.56,193.22,1151.78,193,1152,192.84Z"/><path class="cls-2" d="M472.72,198.09l.5-.75c.54.73,0,.72-.51.74Z"/></g></g></svg>